<?xml version="1.0" encoding="utf-8"?>
<!-- Generator: Adobe Illustrator 22.0.1, SVG Export Plug-In . SVG Version: 6.00 Build 0)  -->
<svg version="1.1" id="Layer_1" xmlns="http://www.w3.org/2000/svg" xmlns:xlink="http://www.w3.org/1999/xlink" x="0px" y="0px"
	 viewBox="0 0 941 170" xml:space="preserve" preserveAspectRatio="xMinYMid meet">
<style type="text/css">
	.st0{fill:#B0B7BB;}
	.st1{fill:#B4121B;}
	.st2{fill:#FFFFFF;}
	.st3{fill:#231F20;}
	.st4{fill:#6A747C;}
	.st5{fill:#6A737B;}
</style>
<g>
	<path class="st0" d="M940.4,65.8v11.4c0,21.1-10.4,67.9-61.4,92.9c-51-24.9-61.4-71.7-61.4-92.9V65.8H940.4z"/>
	<path class="st1" d="M879.1,14.6c0,0,40.1-0.6,61.4,7.8v43.3H817.7V22.5C839,14.1,879.1,14.6,879.1,14.6"/>
	<path class="st2" d="M831,27.3c-0.1,0-0.2,0-0.3,0.1c0.1-0.1,0.2-0.3,0.4-0.4c0.3-0.2,0.6-0.4,1.1-0.4c0.4,0,0.8,0.1,1.4,0.5
		c-0.1,0-0.2,0.1-0.2,0.2c-0.2,0.1-0.3,0.3-0.4,0.4c-0.2-0.2-0.6-0.4-1.3-0.4C831.4,27.2,831.2,27.2,831,27.3z M832.3,31
		c-0.3-0.1-0.6-0.1-0.9-0.1c-0.7,0-1.1,0.3-1.3,0.6c-0.2,0.2-0.3,0.5-0.3,0.7c0.1-0.1,0.2-0.1,0.3-0.2c0.5-0.3,0.9-0.4,1.2-0.4
		c0.2,0,0.4,0,0.6,0.1C832,31.4,832.2,31.1,832.3,31C832.2,31.1,832.3,31.1,832.3,31z M832.7,28.9c0,0.1-0.1,0.1-0.1,0.1v0l0,0l0,0
		l0,0.1c0,0.1,0,0.1,0,0.2c0,0.2,0.1,0.3,0.3,0.5c0.3,0.2,1,0.6,1.6,1c0.2-0.5,0.5-1,0.9-1.4l-0.8-1.6l0,0l0,0l0,0l-0.1-0.1
		c-0.1-0.1-0.2-0.1-0.3-0.1c-0.1,0-0.2,0-0.4,0.2C833.2,28.2,832.8,28.7,832.7,28.9z M835.7,56.7c-0.2,0.4-0.2,0.8-0.2,1.1
		c0,0,0,0,0,0.1c0-0.1,0.1-0.1,0.1-0.2c0.3-0.6,0.8-0.9,1.2-1.1c-0.1-0.3-0.1-0.5-0.2-0.8C836.2,56,835.9,56.3,835.7,56.7z
		 M837.3,37.3c0.8,0.6,1.2,0.9,1.5,0.9c0.2,0,0.3-0.1,0.4-0.2c0.1-0.1,0.2-0.3,0.3-0.4c0.1-0.2,0.1-0.4,0.1-0.6c0-0.4-0.1-0.8-0.2-1
		v0c-0.1-0.2-1.9-4.2-2.3-5.9c-0.1-0.2-0.1-0.5-0.1-0.6l0-0.1c0,0-0.1,0-0.1,0c-0.1,0-0.3,0.1-0.5,0.2c-1.1,0.7-1.5,1.6-1.5,2.7
		C834.9,34.2,836.3,36.5,837.3,37.3z M834.2,31.9c0-0.1,0-0.1,0-0.2c0-0.1-0.6-0.3-0.7-0.4c-0.3-0.1-0.6,0-0.8,0.2
		c-0.2,0.2-0.6,0.8-0.6,1.3c0,0.2,0,0.3,0.2,0.5c0.1,0.1,0.3,0.3,0.6,0.3c0.5,0.2,1.1,0.3,1.5,0.5c-0.2-0.6-0.3-1.2-0.3-1.8
		C834.2,32.1,834.2,32,834.2,31.9z M837,25.3c0.1,0,0.1,0,0.2,0c0.3,0,0.5,0.1,0.7,0.2c-0.1-0.8-0.4-1.2-0.7-1.5
		c-0.4-0.3-0.8-0.4-1.1-0.4c-0.1,0-0.2,0-0.2,0c0.1,0.1,0.2,0.1,0.3,0.2C836.8,24.4,837,25,837,25.3z M835.5,27.5
		c0.1,0.3,0.1,0.5,0.2,0.8c0,0.1,0.3,0.8,0.3,0.8c0,0,0.1,0,0.1-0.1c0,0,0,0,0,0c0.3-0.1,0.5-0.2,0.8-0.2c0.1,0,0.2,0,0.4,0.1
		c0.1-0.2,0.2-0.5,0.3-0.8c0.1-0.3,0.2-0.7,0.2-0.8c0-0.1,0-0.3,0-0.4c0-0.2,0-0.4-0.1-0.6c-0.1-0.1-0.2-0.2-0.5-0.2
		c-0.1,0-0.2,0-0.4,0.1c-0.4,0.1-1,0.3-1.3,0.6C835.4,26.9,835.4,27.2,835.5,27.5L835.5,27.5z M842.7,28.3c0.4-0.5,0.6-1,0.6-1.4
		c0-0.4-0.2-0.8-0.4-1.1c-0.1-0.2-0.3-0.3-0.4-0.4c0,0.1,0,0.2,0.1,0.3c0,0.2,0.1,0.4,0.1,0.5c0,0.7-0.3,1.1-0.4,1.3
		C842.3,27.8,842.6,28,842.7,28.3z M856.5,25.5L856.5,25.5c0-0.2,0.2-0.5,0.3-0.7c0.2-0.3,0.5-0.5,0.3-0.9c-0.1-0.2-0.3-0.3-0.3-0.5
		c0-0.1,0.1-0.2,0.2-0.3c0.1-0.1,0.3-0.2,0.5-0.2c0.5-0.2,2.2-0.8,2.2-0.8c0.2-0.2,0.2-0.3,0.4-0.5c0.2-0.2,0.5-0.4,1.2-0.5
		c1.7-0.4,6.5-0.7,7-0.7c0.1,0,0.3,0.1,0.5,0.2c0.3,0.2,0.6,0.6,0.9,0.9c0.1,0.1,0.2,0.3,0.3,0.4c0.1,0.1,0.1,0.2,0.1,0.2l0.1,0.1
		l0.1-0.1c0,0,0.1-0.1,0.2-0.1c0.1,0,0.2-0.1,0.4-0.1c0.2,0,0.4,0,0.6,0.2c0.2,0.1,0.4,0.4,0.5,0.8c0.1,0.2,0.1,0.4,0.1,0.6
		c0,1.2-0.8,2.3-1.3,2.9l-0.1,0.1l0.1,0.1c1.8,2.6,2.1,5,2.1,5.8c-0.2-0.3-0.6-0.8-0.6-0.8c0,0-0.1-0.1-0.1-0.2
		c-0.1-0.1-0.2-0.2-0.3-0.2c0,0-0.1,0-0.1,0c-0.1,0-0.2,0-0.2,0.1c-0.1,0.1-0.1,0.2-0.1,0.3c0,0.1,0,0.2,0.1,0.3
		c0.8,2.3,0.9,4.7,0.9,6c0,0,0,0.1,0,0.1c-0.3-0.5-0.8-1.2-0.8-1.2c-0.1-0.3-0.3-0.4-0.5-0.4c-0.1,0-0.2,0-0.2,0.1
		c-0.1,0.1-0.1,0.2-0.1,0.2c0,0.1,0,0.1,0,0.2c0.4,1.1,0.5,2.1,0.5,3c0,1.2-0.3,2.3-0.5,3c-0.1,0.4-0.3,0.7-0.4,0.9
		c0,0.1-0.1,0.1-0.1,0.2c-0.1-0.1-0.1-0.2-0.2-0.4c-0.2-0.3-0.4-0.7-0.5-1c-0.1-0.1-0.1-0.3-0.2-0.3c-0.1-0.1-0.2-0.1-0.3-0.1
		c-0.1,0-0.2,0.1-0.2,0.1c0,0.1-0.1,0.2-0.1,0.3c0,0,0,0.1,0,0.1c0,0.2,0,0.5,0,0.7c0,2.1-0.8,3.6-1.6,4.5c-0.4,0.5-0.8,0.8-1.1,1
		c-0.1,0.1-0.3,0.2-0.4,0.2c0-0.6,0-2.3,0-3c0-0.1,0-0.2-0.1-0.3c-0.1-0.1-0.1-0.2-0.3-0.2c-0.1,0-0.1,0-0.2,0.1
		c-0.1,0.1-0.1,0.1-0.1,0.2c-0.6,1.4-1.2,2.2-1.7,2.6c-0.5,0.4-1,0.6-1.3,0.6c-0.2,0-0.3,0-0.4-0.1c0.1-0.1,0.2-0.3,0.3-0.6
		c0.2-0.4,0.4-0.9,0.4-1.4c0-0.3-0.1-0.7-0.4-0.9c-0.3-0.2-0.7-0.4-1.3-0.4c-0.2,0-0.4,0-0.6,0c-1.4,0.2-3.4,1.1-5.1,1.9
		c-1.4,0.7-2.5,1.4-2.9,1.6c-0.3-0.7-0.5-1.3-0.5-1.9c0-0.8,0.3-1.5,0.5-1.9c0.1-0.2,0.3-0.4,0.4-0.5c0-0.1,0.1-0.1,0.1-0.1l0,0
		c0,0,0.1-0.1,0.1-0.1c0.1-0.1,0.1-0.2,0.1-0.3c0-0.1,0-0.2-0.1-0.2c-0.1-0.1-0.2-0.1-0.3-0.1c-0.7,0.1-1.3,0.3-1.7,0.6
		c-0.3,0.2-0.5,0.4-0.7,0.5c0.1-2.2,0.9-3.7,1.8-4.6c0.9-1,1.9-1.4,2.1-1.5c0.2-0.1,0.3-0.1,0.4-0.2c0.1-0.1,0.1-0.2,0.1-0.3
		c0-0.1,0-0.1,0-0.1c0-0.1-0.1-0.1-0.1-0.2c-0.1-0.1-0.3-0.1-0.4-0.1c0,0-0.5-0.1-1-0.2c-0.3-0.1-0.5-0.1-0.7-0.2
		c-0.1,0-0.1,0-0.2,0c1.5-1.9,3.6-2.2,4.8-2.2c0.3,0,0.5,0,0.6,0c0.1,0,0.1,0,0.2,0c0,0,0.1,0,0.1,0c0.1,0,0.2,0,0.2,0
		c0.2,0,0.3,0,0.4-0.1c0.1-0.1,0.2-0.2,0.2-0.3c0-0.1-0.1-0.2-0.1-0.3c-0.1-0.1-0.1-0.1-0.1-0.1c0,0,0,0,0,0c-0.1,0-0.3-0.2-0.9-0.5
		c-0.2-0.1-0.3-0.2-0.4-0.3C857,34.1,857,34,857,34l0,0c0.1,0,0.3,0,0.6,0c0.4,0,0.8,0.1,0.9,0.1c0.6,0.2,1,0.3,1.4,0.3
		c0.8,0,1.3-0.3,1.7-0.7c0.4-0.4,0.6-0.8,0.7-1c0.1-0.2,0.2-0.4,0.2-0.6c0-0.3-0.2-0.6-0.5-0.7c-0.2,0-0.4-0.1-0.8-0.1
		c-0.4,0-0.8,0.1-1.1,0.4c-0.2,0.2-0.4,0.3-0.5,0.3c-0.1,0-0.1,0-0.2,0l0,0c0,0-0.7-0.7-0.7-0.7c-0.3-0.1-0.5-0.2-0.6-0.2
		c-0.1-0.1-0.1-0.1-0.1-0.1l0-0.1c0,0,0.1-0.1,0.1-0.1c0.4-0.2,0.6-0.3,0.9-0.3c0.4,0,0.8,0.1,1.7,0.1c0.1,0,0.3,0,0.5,0
		c0.6,0,1-0.2,1.3-0.5c0.2-0.3,0.3-0.6,0.3-0.9c0-0.4-0.1-0.7-0.1-0.7c0,0-0.5-1.2-1.3-2.6c-0.2-0.4-0.6-0.6-0.9-0.6
		c-0.5,0-0.9,0.3-1.3,0.5c-0.3,0.3-0.6,0.5-0.6,0.5c-0.3,0.3-0.6,0.4-0.9,0.4c-0.3,0-0.6-0.1-0.8-0.4
		C856.7,26.1,856.6,25.8,856.5,25.5z M861.1,23.1c0.2,0.1,0.4,0.2,0.6,0.4c0,0,0.1,0.1,0.1,0.1l0.1-0.1c0,0,0.3-0.2,0.5-0.5
		c0.1-0.1,0.6-0.4,0.6-0.6c0-0.3-1.4,0-1.6,0.1c-0.2,0.1-0.3,0.1-0.4,0.2c-0.1,0-0.1,0.1-0.1,0.1l-0.1,0
		C860.6,23,861.1,23.1,861.1,23.1z M837.8,29.9c0.3,1.2,1.5,3.8,2,5.1c0.2,0.4,0.3,0.7,0.3,0.7c0,0,0.3,0.6,0.3,1.3
		c0,0.3-0.1,0.7-0.3,1c-0.3,0.4-0.5,0.7-0.5,0.7l0,0l0,0h0l0,0l0,0c0,0,0,0.1-0.1,0.1c-0.1,0.1-0.1,0.3-0.1,0.5
		c0,0.2,0.1,0.5,0.2,0.8c0,0,0.2,0.4,0.5,0.8c0.3,0.4,0.5,0.9,0.7,1.1c0.1,0.1,0.1,0.2,0.2,0.2c0.1,0.1,0.1,0.1,0.1,0.1l0,0
		c0-0.1,0-0.2,0-0.4c0,0,0-0.1,0-0.1v-0.1c0-0.3,0-0.6,0-0.8c0-0.2,0.2-0.4,0.4-0.4c0.1,0,0.3,0.1,0.3,0.3c0.1,0.2,0.1,0.6,0.2,0.9
		v0c0,0,0,0,0,0.1c0,0.1,0.1,0.2,0.1,0.3c0.1,0.2,0.3,0.6,0.5,1c0.4,0.7,1.1,1.5,2,1.8c0-0.1,0-0.2,0-0.3c0-0.4,0-0.8,0-0.9
		c0,0,0-0.1,0-0.1c0-0.1,0-0.1,0-0.2c0-0.1,0.1-0.1,0.2-0.1h0h0l0,0c0.1,0,0.1,0,0.2,0.1c0.1,0,0.1,0.1,0.1,0.1c0,0,0.1,0.1,0.1,0.1
		h0l0,0c0,0,0,0.1,0.1,0.2c0.1,0.1,0.2,0.3,0.4,0.5c0.3,0.4,0.8,1,1.3,1.7c1,1.1,2.2,2.2,3.4,2.5c-0.1-0.3-0.1-0.6-0.1-1
		c0-0.6,0.1-1.3,0.4-1.9c-0.1,0.1-0.2,0.2-0.3,0.3l-1.6,1.4l0.1-2.1c0.1-2.1,0.8-3.9,2-5.2c0.4-0.4,0.8-0.8,1.3-1.1
		c-0.2,0-0.3-0.1-0.5-0.1c-0.1,0-0.2,0-0.2-0.1l-0.5-0.1c-2.8-0.4-6.9-1.6-10.7-5.2c-0.5-0.4-0.9-1.2-0.9-2c0-0.4,0.1-0.9,0.5-1.3
		c0.3-0.4,0.8-0.8,1.6-1l0,0h0l0,0l0,0l0.1-0.1c0.1-0.1,0.1-0.1,0.1-0.2c0-0.1-0.1-0.4-0.6-0.8c-0.6-0.5-1.1-0.8-1.4-1.1
		c-0.3-0.2-0.4-0.3-0.4-0.3l0,0l0,0l0,0c0,0-0.2,0-0.4,0.2c-0.3,0.3-1.5,1.3-1.5,2.6C837.8,29.5,837.8,29.7,837.8,29.9z M842.1,51.2
		L842.1,51.2L842.1,51.2c0-0.2,0-0.4-0.3-0.6c-0.2-0.2-0.4-0.4-0.6-0.5c-0.2-0.1-0.3-0.2-0.3-0.2l0,0c0,0-0.1,0-0.1,0
		c-0.1,0-0.2,0-0.3,0.1c0,0-0.1,0-0.2,0.1c-0.1,0-0.2,0.1-0.3,0.2c-0.2,0.1-0.5,0.3-0.8,0.5c0.1,0.1,0.1,0.1,0.2,0.2
		c0.4,0.4,0.9,1,1.6,1.3c0.3,0.1,0.6,0.3,1,0.3c0-0.1,0-0.3,0-0.4C841.9,51.6,842.1,51.2,842.1,51.2L842.1,51.2z M837.2,51
		c-0.6,0-1,0.2-1.3,0.5c-0.2,0.1-0.3,0.3-0.4,0.4c0.1,0,0.1-0.1,0.2-0.1c0.3-0.1,0.6-0.2,0.9-0.2c0.3,0,0.5,0,0.7,0.1
		c0.1-0.2,0.3-0.5,0.5-0.7C837.5,51,837.3,51,837.2,51z M841,47.9c-0.4-0.2-0.7-0.3-1-0.3c0.1,0,0.1,0.1,0.2,0.1
		c0.7,0.5,0.9,1.2,0.9,1.5c0,0,0.1,0,0.1,0l0.1,0l0,0l0,0l0,0c0,0,0.4,0.3,0.7,0.6C842,48.8,841.5,48.2,841,47.9z M915.9,53.2
		L915.9,53.2c0.2-0.1,0.3-0.2,0.5-0.4c0.1-0.1,0.1-0.1,0.2-0.2c-0.4-0.2-0.7-0.2-1-0.2c-0.5,0-1,0.2-1.3,0.5
		c-0.2,0.1-0.3,0.3-0.4,0.4c0.1,0,0.1,0,0.2-0.1c0.3-0.1,0.6-0.2,0.9-0.2C915.4,53,915.7,53.1,915.9,53.2L915.9,53.2z M915.8,54.7
		c0,0.4,0.3,0.9,0.5,1.2c0.2,0.2,0.5,0.3,0.7,0.3c0.3,0.1,0.6,0.1,0.9,0.1c0.3,0,0.9-0.1,0.6-0.5c-0.1-0.2-0.3-0.3-0.4-0.5
		c-0.1-0.2-0.2-0.5-0.3-0.7c-0.1-0.3-0.2-0.7-0.3-1.1c0-0.1-0.1-0.3-0.1-0.4c-0.1-0.1-0.2-0.2-0.3-0.2c-0.1,0-0.2,0-0.4,0.2
		c-0.6,0.6-0.7,0.7-0.9,1C915.8,54.4,915.8,54.6,915.8,54.7z M913.1,58.1c-0.2,0.4-0.3,0.9-0.3,1.2v0c0-0.1,0.1-0.1,0.1-0.2
		c0.5-0.8,1.1-1.1,1.4-1.1c0-0.1,0-0.2,0-0.4c0-0.2,0-0.3,0.1-0.5c0,0,0,0,0,0C913.7,57.4,913.3,57.7,913.1,58.1z M881.2,51.9
		c0.2,0,0.3,0,0.4,0c0.1,0,0.2,0,0.3,0h0h0c0.1,0,0.1,0,0.2,0c-0.2-0.7-0.6-1.1-1-1.3c-0.4-0.3-0.9-0.3-1.2-0.3c-0.1,0-0.2,0-0.3,0
		c0.1,0,0.1,0.1,0.2,0.1c0.9,0.4,1.2,1,1.3,1.3v0L881.2,51.9z M918.3,59.8c-0.1-0.1-0.1-0.1-0.2-0.2c-0.3,0.5-0.4,0.9-0.4,1.3
		c0,0.7,0.4,1.3,0.7,1.6c0-0.1,0-0.1-0.1-0.2c-0.1-0.2-0.1-0.5-0.1-0.7c0-0.6,0.2-1,0.3-1.1l0,0l0.1-0.2c0,0,0,0-0.1-0.1
		C918.5,60,918.4,59.9,918.3,59.8z M923.4,59.9L923.4,59.9l0-0.2l-0.6,0h0h0c-0.1,0-0.2,0-0.3,0c0.2,0.7,0.6,1.1,1,1.4
		c0.4,0.3,0.9,0.3,1.2,0.3c0,0,0.1,0,0.1,0c-0.1,0-0.1-0.1-0.2-0.1C923.7,60.9,923.4,60.2,923.4,59.9z M840.2,58.5
		c-0.5,0.5-0.7,1-0.7,1.5c0,0.3,0,0.5,0.1,0.7c0-0.1,0-0.1,0.1-0.2c0.2-0.7,0.6-1.1,0.9-1.3c-0.1-0.1-0.2-0.3-0.3-0.4
		C840.3,58.7,840.2,58.6,840.2,58.5z M874.9,52.7c-0.6,0-1.1,0.3-1.4,0.5c0.1,0,0.1,0,0.2,0c0.1,0,0.2,0,0.3,0
		c0.3,0,0.6,0.1,0.8,0.1c0.2-0.2,0.3-0.4,0.5-0.5C875.2,52.7,875.1,52.7,874.9,52.7z M875.7,55.4c0,0,0,0.1,0,0.1
		c0,0.1,0,0.1,0.1,0.2c0.1,0.1,0.3,0.1,0.6,0.1c0.2,0,0.3,0,0.4,0c0.2,0,0.4,0,0.5-0.1c0-0.1,0.1-0.2,0.1-0.3
		c0.1-0.2,0.2-0.5,0.2-0.7c0-0.2,0-0.4,0.1-0.6c0-0.1,0-0.3,0-0.4c-0.2-0.2-0.6-0.6-0.8-0.7c-0.1-0.1-0.3-0.2-0.4-0.2
		c-0.1,0-0.3,0-0.5,0.2c-0.2,0.1-0.4,0.3-0.5,0.4c-0.1,0.1-0.2,0.3-0.2,0.4c0,0.1,0,0.2,0.1,0.3c0.2,0.3,0.3,0.6,0.3,0.9
		C875.7,55.2,875.7,55.3,875.7,55.4z M924.7,56.6c-0.1-0.2-0.2-0.3-0.2-0.6c0-0.5,0.3-0.8,0.6-1.2c0,0,0.1-0.1,0.1-0.1
		c0.2-0.4,0.3-0.8,0.3-1.3c0-0.6-0.2-1.4-1-2.2c0,0-0.2-0.2-0.2-0.6c0-0.3,0.1-0.8,0.3-1.5c0.2-0.6,0.5-1.1,0.5-1.7
		c0-0.3-0.1-0.5-0.2-0.8c-0.1,0.5-0.2,1.5-0.9,1.5c-0.5,0-0.4-0.6-0.4-0.9c0-0.1,0-0.2,0-0.3c0-0.3,0.1-0.6,0.1-1
		c0-0.6-0.1-1.3-0.3-1.9c-0.1,0.4-0.2,0.7-0.4,0.9c-0.1,0.1-0.2,0.1-0.3,0.1c-0.1,0-0.2-0.1-0.3-0.2c-0.1-0.1-0.1-0.2-0.2-0.3
		c-0.1-0.2-0.1-0.4-0.1-0.4c0,0-0.1-0.5-0.2-1.1c-0.1-0.5-0.3-1.1-0.4-1.5c0,0.2-0.1,0.4-0.1,0.7c-0.1,0.3-0.1,0.7-0.5,0.8
		c-0.3,0-0.3-0.2-0.4-0.4c-0.1-0.3-0.1-0.5-0.2-0.8c-0.1-0.4-0.2-0.9-0.4-1.3c-0.1-0.2-0.2-0.4-0.2-0.4c0,0,0,0.1-0.1,0.2
		c-0.1,0.2-0.2,0.4-0.3,0.6c-0.3,0.5-0.7,1.1-1.3,1.5c-1.1,0.8-2,0.9-2.7,0.9c-1.1,0-2.9-0.4-4.5-1.4c-0.9-0.6-2.5-1.5-3.4-2.2
		l-0.3-0.2l0.3,0c0.3,0,0.7,0,1,0c1.5,0,3.2-0.2,4.3-0.7c1.4-0.7,2.1-1.5,2.7-2.4c0.6-0.9,1.2-1.7,2.4-2.4c0.7-0.4,1.5-0.5,2.2-0.5
		c0.8,0,1.5,0.2,1.8,0.3c-0.3-1.1-1.6-2-3.1-2c-1.1,0-2.4,0.5-3.5,1.7l-0.2,0.2l0-0.3l0,0c0,0,0-0.1,0-0.1c0-0.1,0-0.3-0.1-0.5
		c-0.1-0.4-0.3-0.9-0.7-1.5c-0.8-1.1-2.3-2.1-5.3-2.1c-0.2,0-0.5,0-0.7,0c-2.5,0.1-7.2,1.6-11.5,2.5c-4.2,0.8-10.4,1.2-13.1,1.2
		c-1,0-2-0.1-2.8-0.3c-0.9-0.2-1.6-0.5-2-1c-0.3-0.3-0.5-0.7-0.5-1.2c0-1,0.5-1.5,1.2-1.8c0.7-0.3,1.5-0.4,2.1-0.4
		c2,0,4.9,1.3,7.1,2.1c1.6,0.6,3.2,0.6,4,0.6c2.3,0,5.3-1.3,6.8-1.9c1.2-0.5,2.2-0.8,4-0.8c0.4,0,0.9,0,1.4,0.1
		c-0.6-0.7-2-1.4-3.8-1.4c-1.2,0-2.5,0.3-3.9,1.1l-0.1,0.1l-0.1-0.1c-0.1-0.1-0.1-0.3-0.1-0.4c0-0.4,0.2-0.8,0.5-1.2
		c0.3-0.3,0.7-0.6,1.3-0.9c-0.3-0.2-0.9-0.4-1.6-0.6c-0.9-0.2-2-0.3-3.2-0.3c-0.1,0-0.3,0-0.4,0c-2,0.1-3.3,0.5-4.6,1
		c-1.3,0.5-2.6,1-4.4,1c-0.2,0-0.3,0-0.5,0c-0.4,0-0.7,0-1.1,0c-1.8,0-3.4,0.2-4.6,0.8c-1.2,0.6-1.9,1.5-1.9,2.9c0,1.2,0.7,2.2,2,3
		c1.3,0.7,3.2,1.2,5.5,1.2c0,0,0.1,0,0.1,0c5.9,0,12.9-1.4,17.2-2.1c1.4-0.2,4.4-1.1,7-1.1c1.2,0,2.3,0.2,3.1,0.7
		c0.8,0.5,1.3,1.3,1.3,2.5c0,0.6-0.1,1.4-0.7,2c-0.5,0.6-1.4,1-2.9,1c-1.7,0-3.7-0.5-6.1-0.8l-0.2,0c-0.5-0.1-1-0.1-1.6-0.2
		c-3.5-0.4-8-0.7-10.5-0.7c-0.2,0-0.5,0-0.7,0c-1.9,0.1-5.6,0.3-9.1,0.8c-3.6,0.6-7,1.4-8.1,1.6v0.1l0,3.3l-0.9-1.5
		c0,0.1,0,0.1,0,0.2c0,1.4-0.3,2.6-0.6,3.3c-0.2,0.4-0.3,0.8-0.4,1c0,0.1-0.1,0.1-0.1,0.2l-0.8,1.5l-0.7-1.2
		c-0.2,1.4-0.8,2.7-1.8,3.8c-0.2,0.2-0.7,0.7-1.2,1.1c0,0-0.1,0.1-0.1,0.1c-0.2,0.1-0.3,0.2-0.4,0.3l-1.4,0.8v-2.5
		c-0.3,0.4-0.6,0.7-0.9,1c-0.6,0.5-1.2,0.8-1.9,0.8c-0.2,0-0.4,0-0.6-0.1l-1.2-0.4l0.6-1c0.1-0.1,0.2-0.3,0.3-0.5
		c0.2-0.5,0.3-0.8,0.3-1c0,0,0-0.1,0-0.2c-0.1-0.1-0.3-0.1-0.7-0.1c-0.2,0-0.3,0-0.5,0c-0.7,0.1-2.1,0.5-4.8,1.8
		c-1.4,0.7-2.7,1.5-4,2.3c-0.8,0.5-1.7,1-2.5,1.5c-1.2,0.7-2.5,1.2-4,1.5c-0.4,0.1-0.8,0.1-1.2,0.1c-0.6,0-1.1-0.2-1.5-0.6
		c-0.6,0-1.2-0.2-1.6-0.4c-0.6-0.3-1-0.6-1.4-1c-0.3-0.3-0.5-0.5-0.7-0.7c-0.7,0.6-1.3,1.4-1.4,2.4c0,0.2,0,0.5,0,0.7
		c0,0.1,0,0.3,0,0.4c0.1,0,0.2,0,0.4,0c2.7,0,4.2-0.4,4.3-0.4l0.1,0c0.2,0,0.3,0.1,0.3,0.3l0,0.1c0,0.2-0.1,0.3-0.3,0.3
		c0,0-1.6,0.5-4.5,0.5c-0.1,0-0.2,0-0.3,0c0.1,0.8,0.3,1.5,0.6,2c0.4,0.6,1,0.8,1.3,0.8c0,0,0.1,0,0.1,0c2.2-1.5,3.6-2,3.7-2
		c0,0,0.1,0,0.1,0c0.2,0,0.3,0.1,0.3,0.2c0,0,0,0.1,0,0.1c0,0.1-0.1,0.3-0.3,0.3l-0.1,0c-0.1,0-0.2,0.1-0.3,0.1
		c-0.2,0.1-0.6,0.3-1,0.5c-0.3,0.2-0.6,0.3-1,0.6c0,0,0,0,0,0.1c0,0.1,0,0.1,0.1,0.3c0.3,0.5,0.7,1.1,0.9,1.4
		c0.2,0.3,0.5,0.5,0.9,0.5c0.4,0,0.8-0.2,1.4-1c0.3-0.4,0.8-0.8,1.6-0.8l2-0.1l0,0c0,0,0.1,0,0.1,0c0.1,0,0.2,0,0.3-0.1
		c0.3-0.1,0.6-0.3,0.8-0.6c0.1-0.2,0.3-0.3,0.4-0.4c0.2-0.1,0.3-0.1,0.5-0.1c0.3,0,0.7,0.1,1.3,0.3c0.9,0.2,1.5,0.3,1.9,0.3
		c0.1,0,0.3,0,0.3,0c-0.1-0.1-0.1-0.1-0.2-0.2c-0.2-0.2-0.4-0.4-0.6-0.6c-0.1-0.1-0.2-0.3-0.2-0.4c0-0.1,0-0.2,0.1-0.2
		c0.1-0.1,0.2-0.2,0.4-0.2c0.1,0,0.2,0.1,0.3,0.1c0.1,0.1,0.2,0.1,0.2,0.2c0.8,0.6,2.4,1,3.6,1c0.4,0,0.7,0,1-0.1
		c-0.2-0.1-0.5-0.3-0.7-0.5c-0.1-0.1-0.2-0.2-0.2-0.4c0-0.1,0-0.2,0.1-0.2c0.1-0.1,0.2-0.1,0.4-0.1c0.4,0,0.9,0.1,0.9,0.1
		c0,0,0.1,0,0.2,0c0.1,0,0.3,0.1,0.6,0.1c0.5,0.1,1.1,0.2,1.7,0.2c0.7,0,1.3-0.1,1.6-0.4c-0.6-0.6-1.1-1-1.1-1c0,0-0.2-0.1-0.2-0.3
		c0-0.1,0-0.2,0.1-0.3c0.1-0.1,0.2-0.1,0.3-0.1c0.3,0,0.5,0.1,0.5,0.2c0,0,0.1,0,0.3,0.1c0.2,0.1,0.4,0.1,0.7,0.2
		c0.6,0.2,1.4,0.3,2.1,0.3c0.6,0,1.2-0.1,1.6-0.4c-0.5-0.2-0.8-0.5-0.8-0.5c0,0-0.1-0.1-0.1-0.3c0-0.1,0-0.1,0.1-0.2
		c0.1-0.1,0.2-0.2,0.3-0.2c0.1,0,0.2,0,0.3,0c0.1,0,0.1,0,0.1,0c0.2,0,0.4,0,0.6,0c1.2,0,1.8-0.3,2.1-0.5l-1.2-1.5
		c0.1-0.1,0.5-0.2,0.5-0.3c0.1-0.1,0.3-0.2,0.6-0.3c0.5-0.1,1.1-0.3,1.9-0.5c1.6-0.5,3.7-1.3,5.9-2.5c4.3-2.4,8.5-5.3,12.6-6.3
		c1-0.2,2.1-0.3,3-0.3c1.1,0,2.2,0.1,3,0.3c0.7,0.2,1.6,0.8,2.6,1.7c0.9,0.9,1.9,1.9,2.7,2.9c1,1,1.8,1.8,2.1,2.1
		c0.1,0.1,0.2,0.2,0.2,0.2c0,0,0.1,0.1,0.3,0.2c0.2,0.1,0.5,0.3,0.9,0.6c0.7,0.4,1.5,0.8,2.2,0.9c0-0.2-0.4-1.8,0.3-1.5
		c0.3,0.1,0.4,0.4,0.7,0.6c0.3,0.3,0.6,0.5,0.9,0.7c0.5,0.3,1.1,0.6,1.6,0.6c0.2,0,0.3,0,0.5-0.1c-0.3-0.4-0.6-0.7-0.6-0.7
		c0,0-0.1-0.1-0.1-0.3c0-0.1,0.1-0.2,0.2-0.3c0.1-0.1,0.3-0.1,0.5-0.1c0.1,0,0.2,0,0.3,0c0.2,0,0.5,0,0.9,0c0.7,0,1.7,0,2.5-0.2
		c1.2-0.2,2.2-0.5,2.6-0.7c0.1-0.1,0.2-0.1,0.2-0.1c0,0,0.3-0.1,0.6-0.1c0.2,0,0.4,0,0.5,0.1c0.2,0.2,0.4,0.4,0.5,0.7
		c0.1,0.3,0.2,0.6,0.3,0.7c0.4,0.8,1.1,1.8,1,3.4c0,0.2,0,0.5,0,0.7c-0.1,0.4-0.2,1.3-0.6,2c-0.8,1.1-1.6,1.1-1.6,1.1
		c0,0-0.2,0-0.4,0c-0.1,0-0.3,0-0.5,0c-0.6-0.1-1.1-0.3-1.5-0.3c-0.1,0-0.2,0-0.3,0.1c-0.5,0.2-0.6,0.5-0.6,0.9
		c0,0.4,0.2,0.7,0.2,0.8l0,0c0,0,0,0.1,0,0.1c0,0.1,0.1,0.2,0.2,0.3c0.2,0.2,0.5,0.4,1,0.4c0.1,0,0.1,0,0.2,0c0.4,0,0.7-0.3,1-0.5
		c0.3-0.3,0.5-0.5,0.6-0.6l0,0l0.7-1c0,0,0,0,0.1-0.1c0.1,0,0.1-0.1,0.2-0.1c0.1,0,0.1,0,0.2,0c0.1,0.1,0.2,0.2,0.2,0.3
		c0,0.1,0,0.1,0,0.2c0,0.1,0,0.1-0.1,0.1c0,0-0.1,0.1-0.2,0.2c-0.1,0.1-0.2,0.2-0.3,0.4c-0.2,0.3-0.4,0.5-0.4,0.5l0,0
		c0,0,0,0.1,0,0.1c0,0.1,0,0.2,0.2,0.3c0.2,0.2,0.4,0.4,0.6,0.6c0.1,0.2,0.3,0.4,0.5,0.4c0.5,0.1,0.9-0.4,1.2-0.7
		c0.2-0.2,0.5-0.5,0.6-0.8c0.2-0.5,0.2-1,0.2-1.4c0-0.2,0-0.4,0-0.6c0-0.1,0-0.2,0-0.2c0,0,0-0.1,0-0.1c0-0.1,0-0.1,0.1-0.2
		c0.1-0.1,0.1-0.1,0.3-0.2l0.1,0c0.2,0,0.3,0.1,0.3,0.2c0,0.1,0,0.2,0,0.2c0,0,0,0.1,0,0.4c0,0.3,0,0.7,0,1c0,0.4-0.1,0.7-0.1,0.9
		c0,0,0,0.1,0,0.1c0,0.1,0,0.1,0,0.1c0,0,0.1,0.1,0.1,0.1c0.1,0,0.2,0,0.2,0c0,0,1.7-0.1,1.7-0.1h0c0.1,0,0.3,0,0.5-0.1
		c0.2-0.1,0.4-0.3,0.4-0.8c0-0.1,0-0.2,0-0.3c0-0.4-0.1-0.6-0.2-0.7C925,56.9,924.9,56.8,924.7,56.6z M899.3,52.4
		c-0.3-0.1-0.8-0.2-1.3-0.4c-0.8-0.5-1.4-1.5-1.4-2.2c0-0.8,0.5-1.9,1.2-2.6c0.5-0.5,1.1-1,1.6-1.3c0,0-1.9-2-2.1-2.2
		c-0.6-0.6-1.3-1.1-2.1-1.3c-0.9-0.2-1.7,0-2.5,0.4c-0.5,0.2-1,0.5-1.5,0.8c-1.9,1.2-2.9,3.4-3.2,4.2c0.1-0.1,0.2-0.1,0.3-0.2
		c0.3-0.2,0.7-0.5,0.9-0.5c0.1,0,0.2,0,0.2,0c0.2,0,0.3,0.1,0.3,0.2c0.1,0.1,0.1,0.2,0.1,0.3c0,0.2,0,0.3,0,0.3c0,0,0,0.1-0.1,0.3
		c-0.1,0.2-0.1,0.4-0.2,0.7c-0.1,0.5-0.2,1.1-0.3,1.7c0.4-0.6,0.8-1,0.8-1c0,0,0,0,0.1-0.1c0.1,0,0.1-0.1,0.2-0.1
		c0.1,0,0.1,0,0.2,0.1c0,0,0.1,0.1,0.1,0.2c0,0.1,0,0.1,0,0.2c0,0.7-0.2,1.5,0.2,2.2c0.3,0.6,0.5,1.1,0.2,1.7
		c-0.3,0.5-0.8,1-1.3,1.4c-0.3,0.2-0.6,0.3-1.1,0.4c-0.4,0-1.1,0-1.6,0.2c-0.7,0.2-1.3,0.8-2,1c-0.2,0-0.4,0.1-0.7,0.1
		c-0.8,0-1.8-0.3-2.4-0.9c-0.3-0.3-0.4-0.7-0.4-1c0-0.9,0.8-1.7,0.8-1.8l0-0.1c0-0.1,0-0.1,0-0.2l0-0.1c0,0-0.1,0-0.2,0
		c-0.1,0-0.2,0-0.3,0c-0.7,0-1.9,0-1.9,0c0,0-0.5,0-0.8,0.3l0,0c0,0-0.1,0.1-0.1,0.1c-0.1,0.1-0.2,0.3-0.3,0.5
		c-0.1,0.3,0,0.8-0.1,1.4c-0.1,0.5-0.4,1.2-0.5,1.6c0,0.1,0,0.2,0,0.2c0,0.6,0.3,1.1,0.5,1.4c0.7,1,2.1,1.6,3.3,2
		c1.3,0.4,2.5,0.5,2.9,0.6c0.1,0,0.2,0,0.2,0c0.2,0,2.1-0.6,2.8-0.7c0.7-0.1,2.3-0.3,3.1-0.4c0,0-1.1-0.5-1.1-0.5c0,0-0.1,0-0.1-0.1
		c-0.1-0.1-0.1-0.2-0.1-0.3c0-0.1,0-0.1,0-0.2c0-0.1,0.1-0.2,0.2-0.2c0.1,0,0.2,0,0.2,0c0.1,0,0.2,0,0.2,0c0,0,0.3,0,0.7,0.1
		c0.4,0,1,0.1,1.5,0.1c0.4,0,0.9,0,1.2-0.1c0.9-0.1,1.4-0.5,1.6-0.7c-0.1,0-0.1,0-0.2,0c-0.2,0-0.4-0.1-0.5-0.1
		c-0.2-0.1-0.4-0.2-0.5-0.3c-0.1,0-0.1-0.1-0.2-0.1c-0.1-0.1-0.1-0.2-0.1-0.3c0,0,0,0,0,0c0-0.1,0.1-0.1,0.1-0.2
		c0.1,0,0.1-0.1,0.2-0.1c0.1,0,0.2-0.1,0.2-0.1c0,0,0.3,0,0.8-0.1c0.4-0.1,1-0.2,1.4-0.3c0.6-0.2,1.3-0.7,1.6-0.9
		c-0.1,0-0.2-0.1-0.4-0.2c-0.3-0.1-0.7-0.3-0.9-0.6c0,0-0.1-0.1-0.1-0.1c-0.1-0.1-0.1-0.2-0.1-0.3l0-0.1c0-0.1,0.1-0.1,0.1-0.1
		c0.1,0,0.1-0.1,0.2-0.1c0.1,0,0.2-0.1,0.2-0.1c0,0,0.1,0,0.2-0.1c0.2,0,0.4-0.1,0.6-0.1c0.5-0.1,1.1-0.3,1.5-0.5
		c0.2-0.1,0.4-0.3,0.4-0.4c0,0,0,0-0.1,0C899.6,52.5,899.4,52.4,899.3,52.4z M873.9,57.4c-0.2,0.2-0.3,0.4-0.3,0.6
		c0.1,0,0.1-0.1,0.2-0.1c0.4-0.3,0.8-0.5,1.1-0.5c0-0.1,0.1-0.3,0.1-0.4l0-0.1v0c0-0.1,0.1-0.2,0.1-0.3
		C874.5,56.8,874.1,57.1,873.9,57.4z M877.9,59.2c-0.1,0.1-0.2,0.2-0.3,0.2c0,0-0.1,0.1-0.2,0.2c0,0.1-0.1,0.1-0.1,0.2
		c0,0.1,0,0.2,0,0.3c0,0.2,0,0.3,0.2,0.5c0.1,0.2,0.3,0.4,0.7,0.6c0.3,0.1,0.6,0.2,0.8,0.2c0.4,0,0.6-0.2,0.8-0.4
		c0.1-0.2,0.2-0.4,0.3-0.6c-0.7-0.3-1.4-0.7-1.9-1.3C878.2,59,878,59.1,877.9,59.2z M877.7,58.4c-0.2-0.4-0.5-0.9-0.5-1.6
		c0-0.1,0-0.2,0-0.3v0c-0.2,0-0.6,0-0.8,0c0,0-0.1,0-0.1,0l-0.1,0c-0.1,0-0.1,0-0.2,0c-0.1,0-0.2,0-0.2,0.1
		c-0.1,0.1-0.2,0.3-0.3,0.6c-0.1,0.2-0.1,0.5-0.1,0.7c0,0.1,0,0.2,0.1,0.3c0.1,0.1,0.1,0.2,0.3,0.2c0.6,0.2,1,0.3,1.3,0.3h0.1
		c0.1,0,0.2,0,0.3-0.1C877.6,58.6,877.7,58.5,877.7,58.4z M876.8,60.3c-0.4,0.5-0.5,1.1-0.5,1.5c0,0,0,0,0,0c0-0.1,0.1-0.1,0.1-0.2
		c0.1-0.3,0.3-0.5,0.5-0.7c-0.1-0.2-0.1-0.4-0.1-0.6C876.8,60.4,876.8,60.4,876.8,60.3z M848.8,28c0.5,0.4,1.1,0.7,1.7,0.9
		c0.6,0.2,1.2,0.2,1.8,0.2c1.2,0,2.3-0.2,3.4-0.4c1.1-0.2,2.2-0.4,3.2-0.4c1.1,0,2.2,0.3,3.1,0.9c-0.8-0.8-1.9-1.2-3.1-1.4
		c-1.1-0.2-2.3-0.1-3.4-0.1c-1.1,0-2.2,0.1-3.2,0c-1-0.1-1.9-0.5-2.5-1.1l-0.1-0.1c-0.4-0.3-0.9-0.2-1.2,0.1
		C848.4,27.1,848.5,27.6,848.8,28L848.8,28z"/>
	<path class="st2" d="M851.8,142.7c0.2-1,0.4-1.9,0.6-2.9l0,0c1.8,1,4.9,1.6,8.4,2.2c4.6,0.8,10.1,1.8,13.9,4
		c-1-0.4-2.1-0.8-3.6-1.2c-4.9-1.3-7.4-1.2-9.8-1.1C858.9,143.8,856.5,143.9,851.8,142.7z M906.6,144c-5,1.1-7.5,1-10,0.9
		c-2.6-0.1-5-0.2-10,0.9c-1.8,0.4-3.2,0.8-4.3,1.2c1.2-0.3,2.7-0.6,4.8-0.8c5.2-0.6,7.8-0.2,10.3,0.2c2.4,0.4,4.8,0.7,9.7,0.2
		C906.9,145.8,906.7,144.9,906.6,144z M883.4,146c1-0.4,2.1-0.8,3.6-1.2c4.9-1.3,7.4-1.2,9.8-1.1c2.3,0.1,4.8,0.2,9.5-1
		c-0.2-1-0.4-1.9-0.6-2.9c0,0,0,0,0,0c-1.8,1-4.9,1.6-8.4,2.2C892.7,142.8,887.3,143.8,883.4,146z M861.6,144.9
		c-2.5,0.1-5.1,0.2-10-0.9c-0.2,0.9-0.3,1.8-0.4,2.7c4.9,0.5,7.3,0.1,9.7-0.2c2.5-0.4,5.1-0.7,10.3-0.2c2,0.2,3.6,0.5,4.8,0.8
		c-1.1-0.4-2.4-0.8-4.3-1.2C866.6,144.8,864.2,144.8,861.6,144.9z M857.8,123.2l-5.1,15.2c4.3,2.8,19.9,2.1,25.8,9.1v-16.2
		C877,124.4,862.1,126,857.8,123.2z M900.3,123.2c-4.3,2.8-19.2,1.1-20.8,8.1v16.2c5.9-7,21.6-6.3,25.8-9.1L900.3,123.2z"/>
	<g>
		<path class="st2" d="M830.7,82.6l0.7,1.2c0.3,0.5,0.8,0.8,1.4,0.8h0c-0.3,0.6-0.5,1.4-0.6,2.5c0,0.2,0,0.4,0,0.6
			c0,0.5,0,1.3-0.2,1.6c-0.1,0.1-0.2,0.3-0.4,0.5c-0.3,0.4-0.9,1-0.6,1.8l0,0v0c0.3,0.8,1.1,1,1.6,1.1c0.2,0,0.4,0.1,0.6,0.2
			c0.3,0.2,0.8,0.8,1.1,1.2c0.1,0.2,0.2,0.3,0.3,0.5c0.7,0.9,1.5,1.5,2.2,1.8c-0.6,0.3-0.9,1-0.8,1.7l0.3,1.4
			c0.2,0.7,0.8,1.2,1.5,1.2c0.1,0,0.2,0,0.3,0l1.4-0.3c0.6-0.1,1-0.6,1.2-1.1c0.5,0.5,1.3,1,2.2,1.3c0.2,0.1,0.4,0.1,0.6,0.2
			c0.5,0.2,1.2,0.4,1.5,0.7c0.1,0.1,0.2,0.3,0.3,0.5c0.2,0.4,0.7,1.1,1.5,1.1l0,0h0l0,0v0c0.9,0,1.3-0.7,1.5-1.1
			c0.1-0.2,0.2-0.4,0.3-0.5c0.3-0.3,1-0.5,1.5-0.7c0.2-0.1,0.4-0.1,0.6-0.2c1.1-0.4,1.9-0.9,2.4-1.6c0,0.3,0.2,0.5,0.3,0.7
			c0.3,0.3,0.6,0.5,1.1,0.6l1.4,0.1c0.1,0,0.1,0,0.2,0c0.8,0,1.5-0.6,1.6-1.4l0.1-1.4c0-0.4-0.1-0.8-0.3-1.2
			c-0.1-0.1-0.2-0.2-0.3-0.3c0.7-0.3,1.3-0.9,1.9-1.7c0.1-0.1,0.2-0.3,0.3-0.5c0.3-0.4,0.7-1,1.1-1.2c0.2-0.1,0.4-0.1,0.6-0.2
			c0.5-0.1,1.3-0.3,1.6-1.1l0,0l0,0l0,0c0.3-0.8-0.3-1.4-0.6-1.8c-0.1-0.2-0.3-0.3-0.4-0.5c-0.2-0.3-0.2-1.1-0.2-1.6
			c0-0.2,0-0.4,0-0.6c0-1.2-0.3-2.1-0.8-2.8c0.1,0,0.1,0,0.2,0c0.6,0,1.2-0.4,1.4-0.9l0.6-1.3c0.2-0.4,0.2-0.8,0-1.2
			c-0.2-0.4-0.4-0.7-0.8-0.9l-1.3-0.6c-0.2-0.1-0.4-0.1-0.6-0.1c-0.4,0-0.7,0.1-1,0.3c-0.1-0.7-0.4-1.5-1-2.3
			c-0.1-0.2-0.2-0.3-0.3-0.5c-0.3-0.4-0.8-1-0.8-1.4c0-0.2,0-0.4,0-0.6c0.1-0.5,0.1-1.3-0.6-1.8l-0.1,0.1l0,0l0.1-0.1
			c-0.2-0.2-0.5-0.3-0.9-0.3c-0.4,0-0.7,0.1-1.1,0.3c-0.2,0.1-0.4,0.2-0.5,0.2c0,0-0.1,0-0.2,0c-0.4,0-1-0.2-1.4-0.3
			c-0.2-0.1-0.4-0.1-0.6-0.2c-0.6-0.2-1.2-0.3-1.8-0.3c-0.3,0-0.7,0-1.1,0.1c0.1-0.2,0.2-0.5,0.2-0.8c0-0.4-0.2-0.8-0.5-1.1l-1-0.9
			c-0.3-0.3-0.7-0.4-1-0.4c-0.4,0-0.9,0.2-1.2,0.5l-0.9,1c-0.4,0.4-0.5,1-0.3,1.6c-0.3,0-0.5-0.1-0.7-0.1c-0.5,0-1.1,0.1-1.8,0.3
			c-0.2,0.1-0.4,0.1-0.6,0.2c-0.5,0.2-1,0.3-1.4,0.3c-0.1,0-0.1,0-0.2,0c-0.2,0-0.4-0.1-0.5-0.2c-0.3-0.1-0.7-0.3-1.1-0.3
			c-0.3,0-0.6,0.1-0.9,0.3l0,0l0,0c-0.7,0.5-0.6,1.3-0.6,1.8c0,0.2,0,0.4,0,0.6c0,0.4-0.5,1-0.8,1.4c-0.1,0.2-0.2,0.3-0.3,0.5
			c-0.6,0.9-1,1.8-1,2.7c-0.3-0.3-0.7-0.4-1.1-0.4c-0.3,0-0.5,0.1-0.8,0.2l-1.2,0.7c-0.4,0.2-0.6,0.5-0.7,1
			C830.4,81.8,830.5,82.2,830.7,82.6"/>
		<path class="st2" d="M846.7,79.5c1.6,0,2.9,1.1,3.2,2.6c0.1,0,0.3,0,0.4,0c1.4,0,2.6,0.9,3.1,2.2c0.5,1.5-0.2,3.1-1.5,3.8
			c0.3,0.6,0.4,1.2,0.3,1.9c-0.1,0.8-0.6,1.6-1.3,2.1c-0.6,0.4-1.2,0.6-1.9,0.6c-0.8,0-1.6-0.3-2.2-0.8c-0.6,0.6-1.4,0.9-2.2,0.9
			c-0.7,0-1.3-0.2-1.9-0.6c-1.3-0.9-1.7-2.6-1-3.9c-0.6-0.3-1-0.8-1.3-1.4c-0.4-0.8-0.5-1.6-0.2-2.5c0.4-1.3,1.7-2.2,3.1-2.2
			c0.1,0,0.2,0,0.4,0c0.1-0.6,0.4-1.2,0.9-1.7C845.1,79.8,845.9,79.5,846.7,79.5"/>
		<path class="st1" d="M847.2,79.5c1.4,0.2,2.5,1.2,2.7,2.5c0.1,0,0.3,0,0.4,0c1.3,0,2.4,0.7,2.9,1.8c1.1-0.3,2-0.8,2.6-1.1
			c2.5-1.3,2.7-2.9,1.4-4.9c-0.4-0.6-1.3-1.5-1.3-2.4c-0.1-0.7,0.2-1.4,0-1.6h0c-0.2-0.2-0.8,0.3-1.5,0.4c-0.9,0.2-2-0.3-2.7-0.5
			c-2.3-0.7-3.9,0-4.3,2.9C847.3,77.3,847.1,78.4,847.2,79.5 M846.5,73.6c0.1,0.1,0.4,0.1,0.5,0l0.9-1.5c0.1-0.1,0.1-0.4,0-0.5
			l-1-0.9c-0.1-0.1-0.4-0.1-0.5,0l-0.9,1c-0.1,0.1-0.1,0.4,0,0.5L846.5,73.6z M837.8,82.9c0.6,0.3,1.5,0.8,2.5,1
			c0.5-1.1,1.6-1.8,2.9-1.8c0.1,0,0.2,0,0.4,0c0.1-0.6,0.4-1.2,0.9-1.7c0.5-0.5,1.3-0.9,2-0.9c0.1-1.1-0.1-2.2-0.2-2.8
			c-0.4-2.8-2-3.5-4.3-2.9c-0.7,0.2-1.8,0.7-2.7,0.5c-0.7-0.1-1.2-0.6-1.5-0.4c-0.2,0.2,0,0.9,0,1.6c-0.1,0.9-0.9,1.8-1.4,2.4
			C835,79.9,835.2,81.6,837.8,82.9 M831.8,82l0.7,1.2c0.1,0.2,0.3,0.2,0.5,0.1l1.6-0.6c0.2-0.1,0.2-0.3,0.1-0.5l-1.1-1.3
			c-0.1-0.2-0.3-0.2-0.5-0.1l-1.2,0.7C831.7,81.6,831.7,81.8,831.8,82 M859.1,82.6l1.7,0.4c0.2,0.1,0.4,0,0.5-0.2l0.6-1.3
			c0.1-0.2,0-0.4-0.2-0.5l-1.3-0.6c-0.2-0.1-0.4,0-0.5,0.2l-1,1.4C858.8,82.3,858.9,82.5,859.1,82.6 M839.6,96.9
			c0-0.2-0.2-0.3-0.4-0.3l-1.6,0.7c-0.2,0-0.3,0.2-0.3,0.4l0.3,1.4c0,0.2,0.2,0.3,0.4,0.3l1.4-0.3c0.2,0,0.3-0.2,0.3-0.4L839.6,96.9
			z M860.2,87c-0.1-2.4-1.2-3.6-4-3.2c-0.6,0.1-1.7,0.3-2.7,0.7c0.3,1.4-0.3,2.9-1.5,3.5c0.3,0.6,0.4,1.2,0.3,1.9
			c-0.1,0.7-0.4,1.3-1,1.8c0.6,0.9,1.3,1.6,1.7,2c2,2,3.6,1.7,5.1-0.2c0.4-0.6,1.1-1.7,1.9-2c0.6-0.3,1.4-0.2,1.5-0.5l0,0l0,0
			c0.1-0.3-0.5-0.7-0.9-1.3C860.1,89,860.3,87.7,860.2,87 M841.7,88.2c-0.6-0.3-1-0.8-1.3-1.4c-0.4-0.7-0.4-1.5-0.2-2.3
			c-1-0.4-2-0.5-2.6-0.6c-2.8-0.5-3.9,0.8-4,3.2c0,0.7,0.1,2-0.3,2.8c-0.3,0.6-1,1-0.9,1.3v0c0.1,0.3,0.8,0.2,1.5,0.5
			c0.8,0.4,1.5,1.5,1.9,2c1.5,1.9,3.1,2.2,5.1,0.2c0.4-0.4,1.1-1.1,1.7-2C841.4,90.9,841.1,89.4,841.7,88.2 M856.3,97l-1.7-0.5
			c-0.2,0-0.4,0.1-0.4,0.3l0.1,1.7c0,0.2,0.1,0.4,0.3,0.4l1.4,0.1c0.2,0,0.4-0.1,0.4-0.3l0.1-1.4C856.6,97.2,856.5,97,856.3,97
			 M852.1,94.5c1.3,2.5,0.5,4-1.8,4.8c-0.7,0.2-1.9,0.5-2.5,1.2c-0.5,0.5-0.6,1.2-1,1.2c-0.3,0-0.5-0.7-1-1.2
			c-0.6-0.7-1.9-0.9-2.5-1.2c-2.2-0.8-3.1-2.3-1.8-4.8c0.3-0.5,0.7-1.4,1.3-2.2c0.5,0.3,1.1,0.5,1.7,0.5c0.8,0,1.6-0.3,2.2-0.9
			c0.6,0.5,1.4,0.8,2.2,0.8c0.6,0,1.2-0.2,1.7-0.5C851.4,93.1,851.8,93.9,852.1,94.5"/>
		<path class="st1" d="M842.6,87.3c0.2,0.1,0.4,0.1,0.5,0.1c0,0,0,0,0,0c0.1,0,0.2,0.1,0.3,0.1c0.1,0.2,0.1,0.4-0.1,0.5l0,0
			c-0.1,0.1-0.2,0.2-0.3,0.4c-0.7,0.9-0.5,2.2,0.4,2.8c0.9,0.7,2.2,0.5,2.8-0.4c0.1-0.2,0.2-0.3,0.3-0.5h0c0-0.1,0.1-0.2,0.2-0.2
			c0.2-0.1,0.4,0,0.4,0.2h0c0.1,0.1,0.1,0.3,0.2,0.4c0.7,0.9,1.9,1.1,2.8,0.4c0.9-0.7,1.1-1.9,0.4-2.8c-0.1-0.1-0.2-0.3-0.4-0.4
			c0,0,0,0,0,0c-0.1-0.1-0.1-0.2-0.1-0.3c0-0.2,0.1-0.3,0.3-0.4c0,0,0,0,0,0c0.2,0,0.3,0,0.5-0.1c1.1-0.3,1.6-1.5,1.3-2.5
			c-0.3-1.1-1.5-1.6-2.5-1.3c-0.2,0.1-0.3,0.1-0.5,0.2c0,0,0,0,0,0c-0.1,0.1-0.2,0.1-0.3,0c-0.2-0.1-0.3-0.2-0.2-0.4l0,0
			c0-0.2,0.1-0.3,0.1-0.5c0-1.1-0.9-2-2-2c-1.1,0-2,0.9-2,2c0,0.2,0,0.4,0.1,0.5l0,0c0,0.1,0,0.2-0.1,0.3c-0.1,0.2-0.3,0.2-0.5,0.1
			v0c-0.1-0.1-0.3-0.2-0.4-0.2c-1.1-0.3-2.2,0.2-2.5,1.3C840.9,85.8,841.5,86.9,842.6,87.3"/>
		<path class="st2" d="M845.1,86.4c0-0.9,0.7-1.6,1.6-1.6c0.9,0,1.6,0.7,1.6,1.6c0,0.9-0.7,1.6-1.6,1.6
			C845.8,88,845.1,87.3,845.1,86.4"/>
	</g>
	<g>
		<path class="st2" d="M927.4,82.6l-0.7,1.2c-0.3,0.5-0.8,0.8-1.4,0.8h0c0.3,0.6,0.5,1.4,0.6,2.5c0,0.2,0,0.4,0,0.6
			c0,0.5,0,1.3,0.2,1.6c0.1,0.1,0.2,0.3,0.4,0.5c0.3,0.4,0.9,1,0.6,1.8l0,0v0c-0.3,0.8-1.1,1-1.6,1.1c-0.2,0-0.4,0.1-0.6,0.2
			c-0.3,0.2-0.8,0.8-1.1,1.2c-0.1,0.2-0.2,0.3-0.3,0.5c-0.7,0.9-1.5,1.5-2.2,1.8c0.6,0.3,0.9,1,0.8,1.7l-0.3,1.4
			c-0.2,0.7-0.8,1.2-1.5,1.2c-0.1,0-0.2,0-0.3,0l-1.4-0.3c-0.6-0.1-1-0.6-1.2-1.1c-0.5,0.5-1.3,1-2.2,1.3c-0.2,0.1-0.4,0.1-0.6,0.2
			c-0.5,0.2-1.2,0.4-1.5,0.7c-0.1,0.1-0.2,0.3-0.3,0.5c-0.2,0.4-0.7,1.1-1.5,1.1l0,0h0l0,0v0c-0.9,0-1.3-0.7-1.5-1.1
			c-0.1-0.2-0.2-0.4-0.3-0.5c-0.3-0.3-1-0.5-1.5-0.7c-0.2-0.1-0.4-0.1-0.6-0.2c-1.1-0.4-1.9-0.9-2.4-1.6c0,0.3-0.2,0.5-0.3,0.7
			c-0.3,0.3-0.6,0.5-1.1,0.6l-1.4,0.1c-0.1,0-0.1,0-0.2,0c-0.8,0-1.5-0.6-1.6-1.4l-0.1-1.4c0-0.4,0.1-0.8,0.3-1.2
			c0.1-0.1,0.2-0.2,0.3-0.3c-0.7-0.3-1.3-0.9-1.9-1.7c-0.1-0.1-0.2-0.3-0.3-0.5c-0.3-0.4-0.7-1-1.1-1.2c-0.2-0.1-0.4-0.1-0.6-0.2
			c-0.5-0.1-1.3-0.3-1.6-1.1l0,0l0,0l0,0c-0.3-0.8,0.3-1.4,0.6-1.8c0.1-0.2,0.3-0.3,0.4-0.5c0.2-0.3,0.2-1.1,0.2-1.6
			c0-0.2,0-0.4,0-0.6c0-1.2,0.3-2.1,0.8-2.8c-0.1,0-0.1,0-0.2,0c-0.6,0-1.2-0.4-1.4-0.9l-0.6-1.3c-0.2-0.4-0.2-0.8,0-1.2
			c0.2-0.4,0.4-0.7,0.8-0.9l1.3-0.6c0.2-0.1,0.4-0.1,0.6-0.1c0.4,0,0.7,0.1,1,0.3c0.1-0.7,0.4-1.5,1-2.3c0.1-0.2,0.2-0.3,0.3-0.5
			c0.3-0.4,0.8-1,0.8-1.4c0-0.2,0-0.4,0-0.6c-0.1-0.5-0.1-1.3,0.6-1.8l0.1,0.1l0,0l-0.1-0.1c0.2-0.2,0.5-0.3,0.9-0.3
			c0.4,0,0.7,0.1,1.1,0.3c0.2,0.1,0.4,0.2,0.5,0.2c0,0,0.1,0,0.2,0c0.4,0,1-0.2,1.4-0.3c0.2-0.1,0.4-0.1,0.6-0.2
			c0.6-0.2,1.2-0.3,1.8-0.3c0.3,0,0.7,0,1.1,0.1c-0.1-0.2-0.2-0.5-0.2-0.8c0-0.4,0.2-0.8,0.5-1.1l1-0.9c0.3-0.3,0.7-0.4,1-0.4
			c0.4,0,0.9,0.2,1.2,0.5l0.9,1c0.4,0.4,0.5,1,0.3,1.6c0.3,0,0.5-0.1,0.7-0.1c0.5,0,1.1,0.1,1.8,0.3c0.2,0.1,0.4,0.1,0.6,0.2
			c0.5,0.2,1,0.3,1.4,0.3c0.1,0,0.1,0,0.2,0c0.2,0,0.4-0.1,0.5-0.2c0.3-0.1,0.7-0.3,1.1-0.3c0.3,0,0.6,0.1,0.9,0.3l0,0l0,0
			c0.7,0.5,0.6,1.3,0.6,1.8c0,0.2,0,0.4,0,0.6c0,0.4,0.5,1,0.8,1.4c0.1,0.2,0.2,0.3,0.3,0.5c0.6,0.9,1,1.8,1,2.7
			c0.3-0.3,0.7-0.4,1.1-0.4c0.3,0,0.5,0.1,0.8,0.2l1.2,0.7c0.4,0.2,0.6,0.5,0.7,1C927.6,81.8,927.6,82.2,927.4,82.6"/>
		<path class="st2" d="M911.3,79.5c-1.6,0-2.9,1.1-3.2,2.6c-0.1,0-0.3,0-0.4,0c-1.4,0-2.6,0.9-3.1,2.2c-0.5,1.5,0.2,3.1,1.5,3.8
			c-0.3,0.6-0.4,1.2-0.3,1.9c0.1,0.8,0.6,1.6,1.3,2.1c0.6,0.4,1.2,0.6,1.9,0.6c0.8,0,1.6-0.3,2.2-0.8c0.6,0.6,1.4,0.9,2.2,0.9
			c0.7,0,1.3-0.2,1.9-0.6c1.3-0.9,1.7-2.6,1-3.9c0.6-0.3,1-0.8,1.3-1.4c0.4-0.8,0.5-1.6,0.2-2.5c-0.4-1.3-1.7-2.2-3.1-2.2
			c-0.1,0-0.2,0-0.4,0c-0.1-0.6-0.4-1.2-0.9-1.7C913,79.8,912.2,79.5,911.3,79.5"/>
		<path class="st1" d="M910.9,79.5c0.1-1.1-0.1-2.2-0.2-2.9c-0.4-2.8-2-3.5-4.3-2.9c-0.7,0.2-1.8,0.7-2.7,0.5
			c-0.7-0.1-1.2-0.6-1.5-0.4h0c-0.2,0.2,0,0.9,0,1.6c-0.1,0.9-1,1.8-1.3,2.4c-1.3,2-1.1,3.7,1.4,4.9c0.6,0.3,1.5,0.8,2.6,1.1
			c0.5-1.1,1.6-1.8,2.9-1.8c0.1,0,0.3,0,0.4,0C908.5,80.7,909.6,79.7,910.9,79.5 M912.6,72.2c0.1-0.1,0.2-0.4,0-0.5l-0.9-1
			c-0.1-0.1-0.4-0.2-0.5,0l-1,0.9c-0.1,0.1-0.2,0.4,0,0.5l0.9,1.5c0.1,0.1,0.4,0.2,0.5,0L912.6,72.2z M920.3,82.9
			c2.5-1.3,2.7-2.9,1.4-4.9c-0.4-0.6-1.3-1.5-1.3-2.4c-0.1-0.7,0.2-1.4,0-1.6c-0.2-0.2-0.8,0.3-1.5,0.4c-0.9,0.2-2-0.3-2.7-0.5
			c-2.3-0.7-3.9,0-4.3,2.9c-0.1,0.6-0.3,1.7-0.2,2.8c0.8,0.1,1.5,0.4,2,0.9c0.5,0.5,0.8,1.1,0.9,1.7c0.1,0,0.2,0,0.4,0
			c1.2,0,2.3,0.7,2.9,1.8C918.8,83.6,919.7,83.1,920.3,82.9 M926.3,82c0.1-0.2,0-0.4-0.1-0.5l-1.2-0.7c-0.2-0.1-0.4,0-0.5,0.1
			l-1.1,1.3c-0.1,0.2,0,0.4,0.1,0.5l1.6,0.6c0.2,0.1,0.4,0,0.5-0.1L926.3,82 M899,82.6c0.2-0.1,0.3-0.3,0.2-0.5l-1-1.4
			c-0.1-0.2-0.3-0.3-0.5-0.2l-1.3,0.6c-0.2,0.1-0.3,0.3-0.2,0.5l0.6,1.3c0.1,0.2,0.3,0.3,0.5,0.2L899,82.6 M918.5,98.6
			c0,0.2,0.1,0.4,0.3,0.4l1.4,0.3c0.2,0,0.4-0.1,0.4-0.3l0.3-1.4c0-0.2-0.1-0.4-0.3-0.4l-1.6-0.7c-0.2,0-0.4,0.1-0.4,0.3L918.5,98.6
			z M897.8,87c0,0.7,0.1,2-0.3,2.8c-0.3,0.6-1,1-0.9,1.3l0,0l0,0c0.1,0.3,0.8,0.2,1.5,0.5c0.8,0.4,1.5,1.5,1.9,2
			c1.5,1.9,3.1,2.2,5.1,0.2c0.4-0.4,1.1-1.1,1.7-2c-0.5-0.5-0.8-1.1-1-1.8c-0.1-0.7,0-1.3,0.3-1.9c-1.2-0.7-1.9-2.1-1.5-3.5
			c-1.1-0.4-2.1-0.6-2.7-0.7C899.1,83.4,897.9,84.6,897.8,87 M916.4,88.2c0.6,1.3,0.3,2.8-0.7,3.7c0.6,0.9,1.3,1.6,1.7,2
			c2,2,3.6,1.7,5.1-0.2c0.4-0.6,1.1-1.7,1.9-2c0.6-0.3,1.4-0.2,1.5-0.5v0c0.1-0.3-0.5-0.7-0.9-1.3c-0.5-0.8-0.3-2-0.3-2.8
			c-0.1-2.4-1.2-3.6-4-3.2c-0.6,0.1-1.6,0.3-2.6,0.6c0.2,0.8,0.1,1.6-0.2,2.3C917.5,87.4,917,87.9,916.4,88.2 M901.8,97
			c-0.2,0-0.3,0.2-0.3,0.4l0.1,1.4c0,0.2,0.2,0.3,0.4,0.3l1.4-0.1c0.2,0,0.3-0.2,0.3-0.4l0.1-1.7c0-0.2-0.2-0.3-0.4-0.3L901.8,97
			 M906,94.5c0.3-0.6,0.7-1.4,1.4-2.3c0.5,0.3,1.1,0.5,1.7,0.5c0.8,0,1.6-0.3,2.2-0.8c0.6,0.6,1.4,0.9,2.2,0.9
			c0.6,0,1.2-0.2,1.7-0.5c0.6,0.8,1.1,1.7,1.3,2.2c1.3,2.5,0.5,4-1.8,4.8c-0.7,0.2-1.9,0.5-2.5,1.2c-0.5,0.5-0.6,1.2-1,1.2
			c-0.3,0-0.5-0.7-1-1.2c-0.6-0.7-1.8-0.9-2.5-1.2C905.5,98.5,904.7,97,906,94.5"/>
		<path class="st1" d="M915.5,87.3c-0.2,0.1-0.4,0.1-0.5,0.1c0,0,0,0,0,0c-0.1,0-0.2,0.1-0.3,0.1c-0.1,0.2-0.1,0.4,0.1,0.5l0,0
			c0.1,0.1,0.2,0.2,0.3,0.4c0.7,0.9,0.5,2.2-0.4,2.8c-0.9,0.7-2.2,0.5-2.8-0.4c-0.1-0.2-0.2-0.3-0.3-0.5h0c0-0.1-0.1-0.2-0.2-0.2
			c-0.2-0.1-0.4,0-0.4,0.2h0c-0.1,0.1-0.1,0.3-0.2,0.4c-0.7,0.9-1.9,1.1-2.8,0.4c-0.9-0.7-1.1-1.9-0.4-2.8c0.1-0.1,0.2-0.3,0.4-0.4
			c0,0,0,0,0,0c0.1-0.1,0.1-0.2,0.1-0.3c0-0.2-0.1-0.3-0.3-0.4c0,0,0,0,0,0c-0.2,0-0.3,0-0.5-0.1c-1.1-0.3-1.6-1.5-1.3-2.5
			c0.3-1.1,1.5-1.6,2.5-1.3c0.2,0.1,0.3,0.1,0.5,0.2c0,0,0,0,0,0c0.1,0.1,0.2,0.1,0.3,0c0.2-0.1,0.3-0.2,0.2-0.4l0,0
			c0-0.2-0.1-0.3-0.1-0.5c0-1.1,0.9-2,2-2c1.1,0,2,0.9,2,2c0,0.2,0,0.4-0.1,0.5l0,0c0,0.1,0,0.2,0.1,0.3c0.1,0.2,0.3,0.2,0.5,0.1v0
			c0.1-0.1,0.3-0.2,0.4-0.2c1.1-0.3,2.2,0.2,2.5,1.3C917.1,85.8,916.6,86.9,915.5,87.3"/>
		<path class="st2" d="M913,86.4c0-0.9-0.7-1.6-1.6-1.6c-0.9,0-1.6,0.7-1.6,1.6c0,0.9,0.7,1.6,1.6,1.6C912.3,88,913,87.3,913,86.4"
			/>
	</g>
	<path class="st3" d="M590.1,51.6c0-6.3,1.9-12.2,6.4-15.9c3.4-2.8,8.3-4.4,13.1-4.4c4.6,0,8.6,1.4,11.8,3.6c0,0,4.2,2.6,4.2,7.2
		c0,2.3-1.8,4.1-4,4.1c-2.2,0-3.8-1.8-3.7-4.1c0.1-1.1,0.2-3-0.5-4.4c-1.9-3.8-7.1-3.6-7.1-3.6c-7.7,0-11.1,7.7-11.1,17.2
		c0,12.6,6.9,17.2,12.9,17.2c0,0,6.7,0.1,12.5-7.4l2.4,1.5c-3.6,5.5-9.8,9.1-16.8,9.1C599,71.8,590.1,62.8,590.1,51.6z M606,91.6
		h-15.4v2l5.7,1.6l-9.2,25.5l-9.5-25.6l5.4-1.4v-2.2h-17.8v2.2l4.7,1.3l13,32.3h4.2L600.8,95l5.2-1.4V91.6z M493.6,81L493.6,81
		C493.6,81,493.6,81,493.6,81l6.5-1.8v-2.5h-17.8V79l7.1,1.9v32.6c0,0,0.5,10.9-13.9,10.9c-14.4,0-14.4-9.5-14.4-10.9
		c0-1.3,0-27.4,0-32.5l7.2-2v-2.2h-21.6V79l7,1.9V113c0,0-1.2,15.2,20.5,15.2c20.6,0,19.3-14.3,19.3-14.3V81z M779.3,93.6l6.3,1.7
		l-9.4,24.9l-10.2-25.2l5.2-1.4v-2.2h-17.3v2.3l4.8,1.3l14,34.5c-0.9,1.7-1.8,3.4-2.7,5.1c-1.1,2-3.3,5.3-5.9,5.6
		c-2.4,0.2-3-2.7-4.8-3.7c-3.4-1.8-6.5,2.6-4.2,5.5c1.1,1.4,3,2.2,4.8,2.3c1.9,0.1,3.9-0.2,5.6-1c0.9-0.4,1.9-1,2.7-1.7
		c1.6-1.4,2.8-3.2,3.8-5.1c1.7-3.2,3.2-6.3,4.6-9.5c1.2-2.8,2.4-5.6,3.5-8.4c1.4-3.4,2.9-6.8,4.3-10.2c1.2-2.9,2.5-5.9,3.7-8.8
		c0.6-1.4,1.2-2.8,1.8-4.3c0,0,0-0.1,0-0.1l5.1-1.4v-2.3h-15.8V93.6z M494.1,53.9l-1.9-0.7v0l-0.3-0.1c-5.3,9.3-15.9,14.9-22.9,14.9
		c0,0-7.3,0.4-7.3-6.1h0V20.4l7-1.9l0.1-1.8h-22.1v2.1l6.6,1.7v46l-6.7,1.8v2.6h41.2L494.1,53.9z M546.6,66.4l-6.6,2.1v2.4h21v-2.4
		l-6.7-2.1V42l0,0c1.8-1.5,3.8-2.8,5.9-3.9c2.6-1.4,6-3,9-2.5c1.5,0.2,3.3,1.3,4.2,2.5c1.4,1.9,1.8,4.4,1.8,6.7l0,21.4
		c0-0.2,0,0.2,0,0.2l-6.6,2.1v2.4h21.2l0-2.4l-6.6-2.1V41.9c0-2.7-0.9-5.2-3.1-7c-2.2-1.9-5-2.8-7.9-3.2c-5.1-0.6-10.1,1.2-14.3,4
		c-1.2,0.8-2.4,1.6-3.6,2.5v-5.8h-2.8l-11.8,3.1v2.3h6.9V66.4z M575.2,66.3c0,0,0,0.1,0,0.1V66.3z M530.8,122.8c0,0,0,0.1,0,0.1
		V122.8z M538.1,122.9v-22.5c0-2.5-0.9-4.8-2.8-6.5c-2-1.7-4.6-2.6-7.3-2.9c-4.7-0.5-9.3,1.1-13.2,3.6c-1.1,0.7-2.2,1.5-3.3,2.3
		v-5.3H509l-10.8,2.9v2.1h6.4v26.3l-6.1,2v2.2h19.3v-2.2l-6.1-2v-22.4v0c1.7-1.3,3.5-2.5,5.4-3.6c2.4-1.3,5.5-2.7,8.2-2.3
		c1.4,0.2,3,1.2,3.8,2.3c1.3,1.7,1.7,4,1.7,6.1l0,19.7c0-0.1,0,0.2,0,0.2l-6.1,1.9v2.2h19.4l0-2.3L538.1,122.9z M691.7,46.7
		C685.8,45.6,681,44,681,40c0-4.8,5.7-5.2,8.1-5.1c10.9,0.4,13.9,9.5,13.9,9.5h2.5l-2.5-12.1h-2.2l-0.8,2.6
		c-1.9-1.3-5.9-3.5-10.7-3.5c-9.7,0-15.2,5.6-15.2,11.8c0,6.2,7.9,8.7,13.9,10.4c5.8,1.7,13.5,2,13.5,7.7c0,7-9.5,6.8-9.5,6.8
		c-12.9,0-16.3-11.5-16.3-11.5h-2.7l2.5,14.1h2.6l0.9-3.2c0,0,6.4,3.8,13.2,3.8c9.7,0,16.1-6.3,16.1-13
		C708.5,49.5,697.9,47.9,691.7,46.7z M745.5,124.8c-3.1,0-5.1-2.4-5.5-4.9c-0.2-1-0.1-3-0.1-4.7l0-21.4h10.5v-2.3h-10.5V77.9h-3.3
		c0,0,0.2,6-2.8,10.3c-2.3,3.3-6.9,3.5-6.9,3.5V94h5.8v21.8c0,1.7,0,3.4,0,4.4c0,4.8,4.7,7.6,9.9,7.6c6.8,0,9.5-2.9,11.3-4.8
		l-1.8-1.6C749.9,123.1,748.1,124.8,745.5,124.8z M714.8,58.5c0,1.9,0,3.7,0,4.8c0,5.2,5,8.2,10.7,8.2c6.7,0,9.7-2.6,11.7-4.6
		c-0.5-0.7-1.1-1.4-1.5-2.2c-2.2,1.9-4.2,3.6-6.9,3.6c-3.3,0-5.5-2.6-6-5.3c-0.2-1.1-0.1-3.2-0.1-5.1l0-23H734v-2.6h-11.4V17.5H719
		c0,0,0.2,6.5-3.1,11.2c-2.5,3.5-7.4,3.7-7.4,3.7v2.5h6.3V58.5z M735.5,51.6c0-6.7,2.7-12.8,7.6-16.5c3.2-2.4,7.1-3.5,11.4-3.5
		c9.5,0,16.7,6.5,17.2,16.3h-28c0,0-2.9,20,12.9,20c0,0,8.2,0.3,12.3-7.2l2.5,1.2c-2,5.6-8.7,9.6-15.8,9.6
		C744.6,71.6,735.5,62.6,735.5,51.6z M744,44.6h19.4c-0.3-6-4.1-10-9.5-10C749.5,34.6,744,37.2,744,44.6z M613.1,106
		c0,0-2.7,18.5,11.9,18.5c0,0,7.6,0.3,11.3-6.7l2.3,1.1c-1.8,5.2-8,8.9-14.6,8.9c-10.1,0-18.5-8.2-18.5-18.4c0-6.1,2.5-11.9,7-15.2
		c3-2.2,6.5-3.2,10.5-3.2c8.8,0,15.4,6,15.9,15H613.1z M613.4,102.9h17.9c-0.3-5.6-3.8-9.2-8.8-9.2C618.4,93.7,613.4,96,613.4,102.9
		z M803.7,31.8L803.7,31.8c0,0-0.1,0-0.1,0c0,0-0.1,0-0.1,0c-8-1.8-14.3,4.9-15.7,6.4v-5.8h-3.2l-11.5,3.1v2.3h6.9v29l-6.7,1.8v2.3
		H795v-2.3l-7.2-1.9v-25c0.5-0.5,4.1-4.3,7.2-4.3c3.6,0,3.7,2.2,7.2,2.6c0,0,0,0,0.1,0c0,0,0,0,0,0v0c0.1,0,0.3,0,0.4,0
		c2.3,0,4.2-1.9,4.2-4.2C806.9,33.9,805.6,32.3,803.7,31.8z M669.8,91.1L669.8,91.1c0,0-0.1,0-0.1,0c0,0-0.1,0-0.1,0
		c-7.4-1.6-13.2,4.5-14.4,5.9v-5.4h-2.9l-10.6,2.9v2.1h6.4v26.7l-6.2,1.6v2.1h19.9V125l-6.6-1.7v-23c0.4-0.5,3.8-4,6.6-4
		c3.3,0,3.4,2.1,6.6,2.4c0,0,0,0,0.1,0c0,0,0,0,0,0c0.1,0,0.2,0,0.4,0c2.1,0,3.9-1.7,3.9-3.9C672.7,93.1,671.4,91.6,669.8,91.1z
		 M560,91.6l-13.1,1.4v2.9h6.2v27l-6.4,2l0,2.3h19.4v-2.3l-6.1-2V91.6z M556.9,79c-2.5,0-4.4,2-4.4,4.4c0,2.5,2,4.4,4.4,4.4
		c2.5,0,4.4-2,4.4-4.4C561.4,81,559.4,79,556.9,79z M722.1,91.6L709,92.9v2.9h6.2v27l-6.2,2v2.3h19.3v-2.3l-6.1-2V91.6z M714.3,83.5
		c0,2.5,2,4.4,4.4,4.4c2.5,0,4.4-2,4.4-4.4c0-2.5-2-4.4-4.4-4.4C716.3,79,714.3,81,714.3,83.5z M656.7,48.5l0-7.6c0-5.8-6.2-6-8.9-6
		c-2.1,0-6.2,0.1-8.2,2.6c-1.1,1.3-0.7,3.7-0.7,4.8c0.1,2.3-1.5,4.1-3.7,4.1c-2.2,0-4-1.8-4-4.1c0-4.6,4.2-7.2,4.2-7.2
		c3.2-2.2,8.7-3.3,13.3-3.3c4.8,0,8.8,1,12.4,3.6c1.8,1.4,3.2,3.7,3.2,8.5c0,6.3,0,22.5,0,22.5l7.6,2.1l0.4,2.4h-11.2l-4.6-4.9
		c0,0-6.5,5.5-14.7,5.5c-8.2,0-12-4.4-12-8.5c0,0-1.3-8.4,10.8-12.1c2.3-0.7,4.3-1.1,6.1-1.4C653.4,48.3,656.7,48.5,656.7,48.5z
		 M656.5,51.2c0,0-7.7,0.3-12.9,2.5c-3.9,1.7-6.1,4.7-5.9,8.3c0.1,2.2,2.4,5.8,8,5.5c5.5-0.4,10.8-5.1,10.8-5.1V51.2z M691.1,104.6
		c-5.5-1-9.9-2.5-9.9-6.2c0-4.4,5.3-4.8,7.5-4.7c10.1,0.4,12.9,8.8,12.9,8.8h2.3l-2.3-11.2h-2l-0.7,2.4c-1.8-1.2-5.5-3.2-9.9-3.2
		c-8.9,0-14,5.2-14,10.9c0,5.7,7.3,8.1,12.8,9.6c5.3,1.5,12.5,1.8,12.5,7.1c0,6.5-8.8,6.3-8.8,6.3c-11.9,0-15-10.6-15-10.6H674
		l2.4,13.1h2.4l0.9-3c0,0,5.9,3.5,12.2,3.5c8.9,0,14.9-5.8,14.9-12C706.6,107.2,696.9,105.7,691.1,104.6z M522.6,48.5l0-7.6
		c0-5.8-6.2-6-8.9-6c-2.1,0-6.2,0.1-8.2,2.6c-1.1,1.3-0.7,3.7-0.7,4.8c0.1,2.3-1.5,4.1-3.7,4.1s-4-1.8-4-4.1c0-4.6,4.2-7.2,4.2-7.2
		c3.2-2.2,8.7-3.3,13.3-3.3c4.8,0,8.8,1,12.4,3.6c1.8,1.4,3.2,3.7,3.2,8.5c0,6.3,0,22.5,0,22.5l7.2,2v2.5h-10.4l-4.6-4.9
		c0,0-6.5,5.5-14.7,5.5c-8.2,0-12-4.4-12-8.5c0,0-1.3-8.4,10.8-12.1c2.3-0.7,4.3-1.1,6.1-1.4C519.4,48.3,522.6,48.5,522.6,48.5z
		 M522.5,51.2c0,0-7.7,0.3-12.9,2.5c-3.9,1.7-6.1,4.7-5.9,8.3c0.1,2.2,2.4,5.8,8,5.5c5.5-0.4,10.8-5.1,10.8-5.1V51.2z"/>
	<g>
		<path class="st2" d="M927.3,118.1c-2.9,0.8-6.5,1.4-11.5,1.4c-4.5,0-7.8-0.5-10.5-1.1c-2.1-0.5-3.8-1.1-5.5-1.8
			c-2.6-1-5.1-2.2-8.3-3.1c-3.2-0.9-7.1-1.5-12.4-1.5c-4.7,0-8.3,0.5-11.3,1.2c-2.2,0.6-4.2,1.2-5.9,2c-2.7,1.1-5,2.1-8,3
			c-2.9,0.8-6.5,1.4-11.5,1.4c-4.5,0-7.8-0.5-10.5-1.1c-1.9-0.5-3.6-1.1-5.2-1.7c0.6,1.4,1.2,2.7,1.9,4.1c0.5,0.1,0.9,0.3,1.4,0.4
			c3.2,0.9,7.1,1.5,12.4,1.5c4.7,0,8.3-0.5,11.3-1.2c2.2-0.6,4.2-1.2,5.9-2c2.7-1.1,5-2.1,8-3c2.9-0.8,6.5-1.4,11.5-1.4
			c4.5,0,7.8,0.5,10.5,1.1c2.1,0.5,3.8,1.1,5.5,1.8c2.6,1,5.1,2.2,8.3,3.1c3.2,0.9,7.1,1.5,12.4,1.5c4.7,0,8.3-0.5,11.3-1.2
			c0.9-0.2,1.7-0.5,2.5-0.7c0.7-1.4,1.3-2.7,1.9-4.1C930.2,117.2,928.8,117.7,927.3,118.1z"/>
		<path class="st2" d="M915.8,113.1c-4.5,0-7.8-0.5-10.5-1.1c-2.1-0.5-3.8-1.1-5.5-1.8c-2.6-1-5.1-2.2-8.3-3.1
			c-3.2-0.9-7.1-1.5-12.4-1.5c-4.7,0-8.3,0.5-11.3,1.2c-2.2,0.6-4.2,1.2-5.9,2c-2.7,1.1-5,2.1-8,3c-2.9,0.8-6.5,1.4-11.5,1.4
			c-4.5,0-7.8-0.5-10.5-1.1c-2.1-0.5-3.8-1.1-5.5-1.8c-0.9-0.4-1.8-0.7-2.7-1.1c0.5,1.3,1,2.7,1.5,4.1c1.5,0.6,3.1,1.2,4.9,1.7
			c3.2,0.9,7.1,1.5,12.4,1.5c4.7,0,8.3-0.5,11.3-1.2c2.2-0.6,4.2-1.2,5.9-2c2.7-1.1,5-2.1,8-3c2.9-0.8,6.5-1.4,11.5-1.4
			c4.5,0,7.8,0.5,10.5,1.1c2.1,0.5,3.8,1.1,5.5,1.8c2.6,1,5.1,2.2,8.3,3.1c3.2,0.9,7.1,1.5,12.4,1.5c4.7,0,8.3-0.5,11.3-1.2
			c2.2-0.6,4.1-1.2,5.9-1.9c0.5-1.4,1.1-2.7,1.5-4.1c-2.4,1-4.6,1.9-7.2,2.6C924.4,112.5,920.8,113.1,915.8,113.1z"/>
		<path class="st2" d="M822.5,105.9c2.3,0.9,4.6,1.9,7.4,2.7c3.2,0.9,7.1,1.5,12.4,1.5c4.7,0,8.3-0.5,11.3-1.2
			c2.2-0.6,4.2-1.2,5.9-2c2.7-1.1,5-2.1,8-3c2.9-0.8,6.5-1.4,11.5-1.4c4.5,0,7.8,0.5,10.5,1.1c2.1,0.5,3.8,1.1,5.5,1.8
			c2.6,1,5.1,2.2,8.3,3.1c3.2,0.9,7.1,1.5,12.4,1.5c4.7,0,8.3-0.5,11.3-1.2c2.2-0.6,4.2-1.2,5.9-2c0.9-0.3,1.7-0.7,2.6-1
			c0.4-1.3,0.8-2.6,1.2-3.9c-0.5,0.2-1,0.4-1.4,0.6c-2.7,1.1-5,2.1-8,3c-2.9,0.8-6.5,1.4-11.5,1.4c-4.5,0-7.8-0.5-10.5-1.1
			c-2.1-0.5-3.8-1.1-5.5-1.8c-2.6-1-5.1-2.2-8.3-3.1c-3.2-0.9-7.1-1.5-12.4-1.5c-4.7,0-8.3,0.5-11.3,1.2c-2.2,0.6-4.2,1.2-5.9,2
			c-2.7,1.1-5,2.1-8,3c-2.9,0.8-6.5,1.4-11.5,1.4c-4.5,0-7.8-0.5-10.5-1.1c-2.1-0.5-3.8-1.1-5.5-1.8c-1.6-0.6-3.2-1.3-4.9-2
			C821.7,103.3,822.1,104.6,822.5,105.9z"/>
	</g>
	<rect x="817.7" y="64.9" class="st2" width="122.7" height="1.6"/>
	<rect x="409.2" class="st4" width="1.8" height="143.8"/>
	<g>
		<path class="st5" d="M0,20.4h13.5c4,0,7.8,0.5,11.1,1.4c3.4,1,6.3,2.4,8.7,4.4c2.4,2,4.3,4.6,5.7,7.7c1.4,3.1,2,6.8,2,11.1
			s-0.7,8-2,11.1c-1.4,3.1-3.3,5.7-5.7,7.7c-2.4,2-5.4,3.5-8.7,4.5c-3.4,1-7.1,1.4-11.1,1.4H0V20.4z M14.2,66.4
			c3.5,0,6.7-0.4,9.5-1.3c2.8-0.9,5.3-2.2,7.3-4c2-1.8,3.6-4,4.7-6.7c1.1-2.7,1.6-5.8,1.6-9.4c0-3.6-0.6-6.7-1.7-9.4
			c-1.1-2.7-2.7-4.9-4.7-6.7c-2-1.8-4.5-3.1-7.4-4c-2.9-0.9-6.2-1.3-9.8-1.3H3.6v42.7H14.2z"/>
		<path class="st5" d="M70.5,69.7c-0.1-0.4-0.1-0.9-0.1-1.5c-0.1-0.5-0.1-1.1-0.1-1.8c0-0.7,0-1.5,0-2.4c-0.9,1.3-1.9,2.4-2.9,3.2
			c-1.1,0.9-2.2,1.5-3.3,2c-1.2,0.5-2.3,0.8-3.4,1c-1.1,0.2-2.1,0.3-3.1,0.3c-1.4,0-2.9-0.1-4.3-0.4c-1.4-0.3-2.7-0.8-3.9-1.6
			c-1.1-0.8-2.1-1.8-2.8-3.1c-0.7-1.3-1.1-3-1.1-5c0-1.6,0.3-3.2,0.8-4.6c0.5-1.5,1.4-2.7,2.6-3.8c1.2-1.1,2.7-1.9,4.6-2.5
			c1.9-0.6,4.1-0.9,6.8-0.9c2.1,0,3.9,0.1,5.6,0.2c1.6,0.1,3,0.3,4.1,0.5v-1.9c0-1.9-0.2-3.4-0.7-4.7c-0.4-1.2-1.1-2.2-2-3
			c-0.9-0.7-2-1.3-3.3-1.6c-1.3-0.3-2.8-0.4-4.4-0.4c-2.8,0-5,0.4-6.7,1.2c-1.7,0.8-2.9,1.6-3.8,2.3l-1.8-2.3
			c0.9-0.9,2.5-1.8,4.6-2.8c2.1-1,4.7-1.5,7.7-1.5c4.4,0,7.8,0.9,10.2,2.8c2.4,1.9,3.6,5,3.6,9.3v15.7c0,1,0,1.9,0,2.8
			c0,0.9,0,1.6,0.1,2.3c0,0.8,0.1,1.5,0.1,2.1H70.5z M70.3,52.3c-1-0.2-2.3-0.5-3.9-0.6c-1.6-0.2-3.5-0.3-6-0.3
			c-2.5,0-4.5,0.3-6,0.9c-1.5,0.6-2.6,1.4-3.4,2.3c-0.8,0.9-1.3,1.9-1.5,3c-0.2,1.1-0.3,2-0.3,2.9c0,2.5,0.8,4.3,2.5,5.4
			c1.7,1.1,3.8,1.7,6.3,1.7c1.7,0,3.3-0.3,4.7-0.9c1.5-0.6,2.8-1.4,3.9-2.4c1.1-1,2-2.1,2.6-3.4c0.6-1.3,1-2.5,1-3.8V52.3z"/>
		<path class="st5" d="M83.7,38.8h-6.8v-3.1h6.8V24.4h3.3v11.3h11.3v3.1H87.1v19.7c0,2,0.1,3.6,0.4,4.9c0.3,1.2,0.7,2.1,1.3,2.7
			c0.6,0.6,1.2,1,2,1.2c0.7,0.2,1.6,0.3,2.4,0.3c1.2,0,2.3-0.2,3.2-0.7c0.9-0.4,1.8-1.2,2.7-2.3l2.1,2c-1,1.3-2.1,2.3-3.4,3
			c-1.3,0.7-2.9,1-4.9,1c-1.3,0-2.6-0.2-3.7-0.5c-1.1-0.3-2.1-0.9-2.9-1.8c-0.8-0.9-1.4-2-1.9-3.5c-0.4-1.5-0.7-3.3-0.7-5.6V38.8z"
			/>
		<path class="st5" d="M128.7,69.7c-0.1-0.4-0.1-0.9-0.1-1.5c-0.1-0.5-0.1-1.1-0.1-1.8c0-0.7,0-1.5,0-2.4c-0.9,1.3-1.9,2.4-2.9,3.2
			c-1.1,0.9-2.2,1.5-3.3,2c-1.2,0.5-2.3,0.8-3.4,1c-1.1,0.2-2.1,0.3-3.1,0.3c-1.4,0-2.9-0.1-4.3-0.4c-1.4-0.3-2.7-0.8-3.9-1.6
			c-1.1-0.8-2.1-1.8-2.8-3.1c-0.7-1.3-1.1-3-1.1-5c0-1.6,0.3-3.2,0.8-4.6c0.5-1.5,1.4-2.7,2.6-3.8c1.2-1.1,2.7-1.9,4.6-2.5
			c1.9-0.6,4.1-0.9,6.8-0.9c2.1,0,3.9,0.1,5.6,0.2c1.6,0.1,3,0.3,4.1,0.5v-1.9c0-1.9-0.2-3.4-0.7-4.7c-0.4-1.2-1.1-2.2-2-3
			c-0.9-0.7-2-1.3-3.3-1.6c-1.3-0.3-2.8-0.4-4.4-0.4c-2.8,0-5,0.4-6.7,1.2c-1.7,0.8-2.9,1.6-3.8,2.3l-1.8-2.3
			c0.9-0.9,2.5-1.8,4.6-2.8c2.1-1,4.7-1.5,7.7-1.5c4.4,0,7.8,0.9,10.2,2.8c2.4,1.9,3.6,5,3.6,9.3v15.7c0,1,0,1.9,0,2.8
			c0,0.9,0,1.6,0.1,2.3c0,0.8,0.1,1.5,0.1,2.1H128.7z M128.4,52.3c-1-0.2-2.3-0.5-3.9-0.6c-1.6-0.2-3.5-0.3-6-0.3
			c-2.5,0-4.5,0.3-6,0.9c-1.5,0.6-2.6,1.4-3.4,2.3c-0.8,0.9-1.3,1.9-1.5,3c-0.2,1.1-0.3,2-0.3,2.9c0,2.5,0.8,4.3,2.5,5.4
			c1.7,1.1,3.8,1.7,6.3,1.7c1.7,0,3.3-0.3,4.7-0.9c1.5-0.6,2.8-1.4,3.9-2.4c1.1-1,2-2.1,2.6-3.4c0.6-1.3,1-2.5,1-3.8V52.3z"/>
		<path class="st5" d="M152.4,60.7c1.7,2,3.7,3.7,6,5c2.3,1.3,5.2,1.9,8.6,1.9c1.9,0,3.7-0.2,5.3-0.7c1.6-0.4,3-1.1,4.1-2
			c1.2-0.9,2.1-2,2.7-3.3c0.6-1.3,1-2.8,1-4.6c0-1.8-0.4-3.4-1.1-4.7c-0.7-1.3-1.7-2.4-2.9-3.2c-1.2-0.9-2.5-1.6-4-2.1
			c-1.5-0.5-3-1-4.6-1.5c-1.9-0.5-3.8-1-5.6-1.7c-1.9-0.6-3.6-1.4-5-2.4c-1.5-1-2.7-2.3-3.6-3.8c-0.9-1.6-1.4-3.6-1.4-6
			c0-1.7,0.3-3.3,1-4.8c0.7-1.5,1.7-2.9,3-4c1.3-1.1,2.9-2,4.8-2.7c1.9-0.7,4.1-1,6.5-1c2.1,0,3.9,0.2,5.5,0.7c1.6,0.4,3,1,4.2,1.7
			c1.2,0.7,2.2,1.4,3,2.2c0.8,0.8,1.5,1.6,2,2.3l-2.5,2.1c-0.4-0.6-1-1.2-1.7-1.9c-0.7-0.7-1.5-1.3-2.5-1.9c-1-0.6-2.2-1-3.5-1.4
			c-1.4-0.4-2.9-0.6-4.7-0.6c-2,0-3.8,0.3-5.2,0.8c-1.5,0.5-2.7,1.3-3.6,2.1c-0.9,0.9-1.6,1.9-2.1,3c-0.4,1.1-0.7,2.3-0.7,3.4
			c0,1.8,0.4,3.2,1.2,4.4c0.8,1.2,1.9,2.1,3.2,2.9c1.3,0.8,2.8,1.4,4.5,1.9c1.7,0.5,3.3,1,5,1.4c1.7,0.4,3.5,1,5.2,1.7
			c1.7,0.7,3.3,1.6,4.6,2.7c1.4,1.1,2.5,2.5,3.3,4.2c0.9,1.7,1.3,3.8,1.3,6.2c0,2.1-0.4,4-1.3,5.7c-0.9,1.7-2.1,3.1-3.6,4.3
			c-1.5,1.2-3.3,2.1-5.4,2.7c-2.1,0.6-4.3,1-6.7,1c-2.1,0-4-0.2-5.8-0.7c-1.8-0.4-3.4-1-4.9-1.7c-1.5-0.7-2.7-1.5-3.9-2.4
			c-1.1-0.9-2-1.9-2.7-2.9L152.4,60.7z"/>
		<path class="st5" d="M219.6,64.7c-1.4,1.7-3.3,3.1-5.6,4.3c-2.3,1.1-4.9,1.7-7.9,1.7c-2.5,0-4.8-0.5-6.8-1.4
			c-2.1-0.9-3.9-2.2-5.4-3.8c-1.5-1.6-2.7-3.5-3.6-5.7c-0.8-2.2-1.3-4.6-1.3-7.1c0-2.5,0.4-4.9,1.3-7.1c0.9-2.2,2.1-4.1,3.6-5.7
			c1.5-1.6,3.3-2.9,5.4-3.8c2.1-0.9,4.4-1.4,6.8-1.4c3,0,5.6,0.5,7.7,1.6c2.1,1.1,3.9,2.5,5.4,4.4l-2.5,1.9
			c-1.1-1.5-2.6-2.7-4.3-3.5c-1.7-0.9-3.8-1.3-6.3-1.3c-2,0-3.8,0.4-5.4,1.2c-1.7,0.8-3.1,1.9-4.3,3.2c-1.2,1.3-2.1,2.9-2.8,4.7
			c-0.7,1.8-1,3.7-1,5.7c0,2,0.3,3.9,1,5.7c0.7,1.8,1.6,3.4,2.9,4.7c1.2,1.3,2.6,2.4,4.3,3.2c1.7,0.8,3.4,1.2,5.4,1.2
			c2.5,0,4.7-0.4,6.6-1.3c1.9-0.9,3.4-2.1,4.6-3.6L219.6,64.7z"/>
		<path class="st5" d="M223.9,23.7h4.7v4.9h-4.7V23.7z M224.6,35.7h3.3v34.1h-3.3V35.7z"/>
		<path class="st5" d="M265.4,64.6c-1.5,1.9-3.5,3.3-6,4.4c-2.5,1.1-5.1,1.6-7.8,1.6c-2.5,0-4.9-0.4-7-1.3c-2.1-0.9-4-2.1-5.5-3.7
			c-1.5-1.6-2.7-3.5-3.6-5.7c-0.9-2.2-1.3-4.6-1.3-7.3c0-2.5,0.4-4.8,1.2-7c0.8-2.2,1.9-4.1,3.4-5.7c1.4-1.6,3.2-2.9,5.2-3.9
			c2-0.9,4.2-1.4,6.7-1.4c2.3,0,4.5,0.4,6.5,1.2c2,0.8,3.7,2,5.2,3.6c1.5,1.6,2.6,3.5,3.4,5.9c0.8,2.3,1.2,5,1.2,8.1h-29
			c0,1.9,0.4,3.7,1.1,5.4c0.7,1.7,1.6,3.2,2.8,4.4c1.2,1.3,2.6,2.2,4.3,3c1.7,0.7,3.5,1.1,5.5,1.1c1,0,2.1-0.1,3.2-0.3
			c1.1-0.2,2.2-0.6,3.2-1c1-0.4,2-1,2.9-1.6c0.9-0.6,1.6-1.3,2.2-2L265.4,64.6z M263.2,50.7c-0.4-4.2-1.8-7.4-4-9.6
			c-2.2-2.2-5.1-3.3-8.7-3.3c-1.8,0-3.5,0.3-5,1c-1.5,0.7-2.8,1.6-3.9,2.7c-1.1,1.2-2,2.5-2.6,4.1c-0.7,1.6-1,3.2-1.1,5H263.2z"/>
		<path class="st5" d="M273,42.9c0-0.9,0-1.7,0-2.4c0-0.7,0-1.3,0-1.8s0-1,0-1.5c0-0.5-0.1-1-0.1-1.5h3.1c0,0.5,0.1,1,0.1,1.5
			c0,0.4,0,0.9,0.1,1.4c0,0.5,0,1.1,0,1.8c0,0.7,0,1.5,0,2.4c0.4-0.7,1-1.6,1.7-2.5c0.7-0.9,1.6-1.8,2.7-2.6c1.1-0.8,2.3-1.5,3.8-2
			c1.5-0.5,3.2-0.8,5.1-0.8c2.4,0,4.5,0.3,6.1,1c1.7,0.7,3,1.7,4,3c1,1.3,1.8,2.9,2.2,4.7c0.4,1.9,0.7,3.9,0.7,6.2v20h-3.3V50.9
			c0-2.5-0.2-4.6-0.7-6.3c-0.4-1.7-1.1-3-2-4c-0.9-1-1.9-1.7-3.2-2.1c-1.3-0.4-2.7-0.6-4.3-0.6c-2.2,0-4,0.4-5.6,1.3
			c-1.6,0.9-2.9,2-3.9,3.4s-1.8,2.9-2.3,4.6c-0.5,1.7-0.8,3.3-0.8,5v17.6H273V42.9z"/>
		<path class="st5" d="M339,64.7c-1.4,1.7-3.3,3.1-5.6,4.3c-2.3,1.1-4.9,1.7-7.9,1.7c-2.5,0-4.8-0.5-6.8-1.4
			c-2.1-0.9-3.9-2.2-5.4-3.8c-1.5-1.6-2.7-3.5-3.6-5.7c-0.8-2.2-1.3-4.6-1.3-7.1c0-2.5,0.4-4.9,1.3-7.1c0.9-2.2,2.1-4.1,3.6-5.7
			c1.5-1.6,3.3-2.9,5.4-3.8c2.1-0.9,4.4-1.4,6.8-1.4c3,0,5.6,0.5,7.7,1.6c2.1,1.1,3.9,2.5,5.4,4.4l-2.5,1.9
			c-1.1-1.5-2.6-2.7-4.3-3.5c-1.7-0.9-3.8-1.3-6.3-1.3c-2,0-3.8,0.4-5.4,1.2c-1.7,0.8-3.1,1.9-4.3,3.2c-1.2,1.3-2.1,2.9-2.8,4.7
			c-0.7,1.8-1,3.7-1,5.7c0,2,0.3,3.9,1,5.7c0.7,1.8,1.6,3.4,2.9,4.7c1.2,1.3,2.6,2.4,4.3,3.2c1.7,0.8,3.4,1.2,5.4,1.2
			c2.5,0,4.7-0.4,6.6-1.3c1.9-0.9,3.4-2.1,4.6-3.6L339,64.7z"/>
		<path class="st5" d="M372.7,64.6c-1.5,1.9-3.5,3.3-6,4.4c-2.5,1.1-5.1,1.6-7.8,1.6c-2.5,0-4.9-0.4-7-1.3c-2.1-0.9-4-2.1-5.5-3.7
			c-1.5-1.6-2.7-3.5-3.6-5.7c-0.9-2.2-1.3-4.6-1.3-7.3c0-2.5,0.4-4.8,1.2-7c0.8-2.2,1.9-4.1,3.4-5.7c1.4-1.6,3.2-2.9,5.2-3.9
			c2-0.9,4.2-1.4,6.7-1.4c2.3,0,4.5,0.4,6.5,1.2c2,0.8,3.7,2,5.2,3.6c1.5,1.6,2.6,3.5,3.4,5.9c0.8,2.3,1.2,5,1.2,8.1h-29
			c0,1.9,0.4,3.7,1.1,5.4c0.7,1.7,1.6,3.2,2.8,4.4c1.2,1.3,2.6,2.2,4.3,3c1.7,0.7,3.5,1.1,5.5,1.1c1,0,2.1-0.1,3.2-0.3
			c1.1-0.2,2.2-0.6,3.2-1c1-0.4,2-1,2.9-1.6c0.9-0.6,1.6-1.3,2.2-2L372.7,64.6z M370.6,50.7c-0.4-4.2-1.8-7.4-4-9.6
			c-2.2-2.2-5.1-3.3-8.7-3.3c-1.8,0-3.5,0.3-5,1c-1.5,0.7-2.8,1.6-3.9,2.7c-1.1,1.2-2,2.5-2.6,4.1c-0.7,1.6-1,3.2-1.1,5H370.6z"/>
	</g>
	<g>
		<path class="st5" d="M142.2,76.8h3.6v49.4h-3.6V76.8z"/>
		<path class="st5" d="M155.2,99.3c0-0.9,0-1.7,0-2.4c0-0.7,0-1.3,0-1.8c0-0.5,0-1,0-1.5c0-0.5-0.1-1-0.1-1.5h3.1
			c0,0.5,0.1,1,0.1,1.5c0,0.4,0,0.9,0.1,1.4c0,0.5,0,1.1,0,1.8c0,0.7,0,1.5,0,2.4c0.4-0.7,1-1.6,1.7-2.5c0.7-0.9,1.6-1.8,2.7-2.6
			c1.1-0.8,2.3-1.5,3.8-2c1.5-0.5,3.2-0.8,5.1-0.8c2.4,0,4.5,0.3,6.1,1c1.7,0.7,3,1.7,4,3c1,1.3,1.8,2.9,2.2,4.7
			c0.4,1.9,0.7,3.9,0.7,6.2v20h-3.3v-18.9c0-2.5-0.2-4.6-0.7-6.3c-0.4-1.7-1.1-3-2-4c-0.9-1-1.9-1.7-3.2-2.1
			c-1.3-0.4-2.7-0.6-4.3-0.6c-2.2,0-4,0.4-5.6,1.3c-1.6,0.9-2.9,2-3.9,3.4c-1,1.4-1.8,2.9-2.3,4.6c-0.5,1.7-0.8,3.3-0.8,5v17.6h-3.3
			V99.3z"/>
		<path class="st5" d="M191.6,119.5c1.4,1.4,3.1,2.5,4.9,3.3c1.9,0.8,4,1.1,6.6,1.1c1.4,0,2.7-0.1,3.9-0.4c1.2-0.3,2.3-0.7,3.3-1.2
			c0.9-0.5,1.7-1.2,2.2-2c0.5-0.8,0.8-1.7,0.8-2.8c0-1.2-0.2-2.2-0.7-3c-0.5-0.8-1.2-1.4-2.2-2c-1-0.5-2.2-1-3.6-1.3
			c-1.5-0.4-3.1-0.8-5-1.2c-1.6-0.3-3-0.8-4.3-1.2c-1.3-0.5-2.4-1-3.4-1.7c-0.9-0.7-1.7-1.6-2.2-2.6c-0.5-1.1-0.8-2.4-0.8-4
			c0-1.5,0.3-2.9,1-4c0.7-1.2,1.6-2.1,2.8-2.9c1.2-0.8,2.5-1.4,4-1.7c1.5-0.4,3.1-0.6,4.7-0.6c2.7,0,5,0.5,7.1,1.5
			c2,1,3.7,2.2,5,3.8l-2.3,2.1c-1.2-1.3-2.6-2.3-4.1-3.1c-1.6-0.8-3.4-1.2-5.6-1.2c-1.1,0-2.2,0.1-3.3,0.3c-1.1,0.2-2.1,0.5-3,1
			c-0.9,0.5-1.6,1.1-2.1,1.9c-0.5,0.8-0.8,1.9-0.8,3.2c0,1.1,0.3,2,0.9,2.7c0.6,0.7,1.4,1.4,2.4,1.9c1,0.5,2.1,0.9,3.4,1.2
			c1.3,0.3,2.6,0.6,3.9,0.9c1.4,0.3,2.8,0.7,4.2,1.1c1.4,0.4,2.7,1,3.9,1.7c1.2,0.7,2.1,1.6,2.8,2.7c0.7,1.1,1.1,2.5,1.1,4.2
			c0,1.7-0.4,3.2-1.2,4.4c-0.8,1.2-1.8,2.3-3.1,3.1c-1.3,0.8-2.7,1.4-4.4,1.8c-1.6,0.4-3.3,0.6-4.9,0.6c-3.2,0-5.9-0.5-8.2-1.4
			c-2.2-0.9-4.2-2.2-5.7-3.8L191.6,119.5z"/>
		<path class="st5" d="M226.6,95.2h-6.8v-3.1h6.8V80.9h3.3v11.3h11.3v3.1h-11.3v19.7c0,2,0.1,3.6,0.4,4.9c0.3,1.2,0.7,2.1,1.3,2.7
			c0.6,0.6,1.2,1,2,1.2c0.7,0.2,1.6,0.3,2.4,0.3c1.2,0,2.3-0.2,3.2-0.7c0.9-0.4,1.8-1.2,2.7-2.3l2.1,2c-1,1.3-2.1,2.3-3.4,3
			c-1.3,0.7-2.9,1-4.9,1c-1.3,0-2.6-0.2-3.7-0.5c-1.1-0.3-2.1-0.9-2.9-1.8c-0.8-0.9-1.4-2-1.9-3.5c-0.4-1.5-0.7-3.3-0.7-5.6V95.2z"
			/>
		<path class="st5" d="M247.3,80.1h4.7V85h-4.7V80.1z M248,92.1h3.3v34.1H248V92.1z"/>
		<path class="st5" d="M262.4,95.2h-6.8v-3.1h6.8V80.9h3.3v11.3H277v3.1h-11.3v19.7c0,2,0.1,3.6,0.4,4.9c0.3,1.2,0.7,2.1,1.3,2.7
			c0.6,0.6,1.2,1,2,1.2c0.7,0.2,1.6,0.3,2.4,0.3c1.2,0,2.3-0.2,3.2-0.7c0.9-0.4,1.8-1.2,2.7-2.3l2.1,2c-1,1.3-2.1,2.3-3.4,3
			c-1.3,0.7-2.9,1-4.9,1c-1.3,0-2.6-0.2-3.7-0.5c-1.1-0.3-2.1-0.9-2.9-1.8c-0.8-0.9-1.4-2-1.9-3.5c-0.4-1.5-0.7-3.3-0.7-5.6V95.2z"
			/>
		<path class="st5" d="M282.7,92.1h3.3V111c0,2.5,0.2,4.6,0.6,6.3c0.4,1.7,1,3,1.9,4c0.8,1,1.9,1.7,3.1,2.1c1.2,0.4,2.7,0.6,4.3,0.6
			c2.1,0,4-0.4,5.6-1.3c1.6-0.9,2.9-2,3.9-3.4c1-1.4,1.8-2.9,2.3-4.6c0.5-1.7,0.7-3.3,0.7-5V92.1h3.3V119c0,1,0,1.8,0,2.4
			c0,0.6,0,1.2,0,1.7s0,1,0,1.5c0,0.5,0.1,1,0.1,1.5h-3.1c-0.1-0.5-0.1-1-0.1-1.5c0-0.4-0.1-0.9-0.1-1.4c0-0.5,0-1.1,0-1.7
			c0-0.6,0-1.5,0-2.4c-0.4,0.7-0.9,1.6-1.6,2.5c-0.7,0.9-1.6,1.8-2.6,2.6s-2.3,1.5-3.7,2c-1.5,0.5-3.1,0.8-5.1,0.8
			c-2.4,0-4.4-0.3-6.1-1c-1.6-0.7-3-1.7-4-3c-1-1.3-1.7-2.9-2.1-4.7c-0.4-1.8-0.6-3.9-0.6-6.2V92.1z"/>
		<path class="st5" d="M322.8,95.2H316v-3.1h6.8V80.9h3.3v11.3h11.3v3.1h-11.3v19.7c0,2,0.1,3.6,0.4,4.9c0.3,1.2,0.7,2.1,1.3,2.7
			c0.6,0.6,1.2,1,2,1.2c0.7,0.2,1.6,0.3,2.4,0.3c1.2,0,2.3-0.2,3.2-0.7c0.9-0.4,1.8-1.2,2.7-2.3l2.1,2c-1,1.3-2.1,2.3-3.4,3
			c-1.3,0.7-2.9,1-4.9,1c-1.3,0-2.6-0.2-3.7-0.5c-1.1-0.3-2.1-0.9-2.9-1.8c-0.8-0.9-1.4-2-1.9-3.5c-0.4-1.5-0.7-3.3-0.7-5.6V95.2z"
			/>
		<path class="st5" d="M372.2,121.1c-1.5,1.9-3.5,3.3-6,4.4c-2.5,1.1-5.1,1.6-7.8,1.6c-2.5,0-4.9-0.4-7-1.3c-2.1-0.9-4-2.1-5.5-3.7
			c-1.5-1.6-2.7-3.5-3.6-5.7c-0.9-2.2-1.3-4.6-1.3-7.3c0-2.5,0.4-4.8,1.2-7c0.8-2.2,1.9-4.1,3.4-5.7c1.4-1.6,3.2-2.9,5.2-3.9
			c2-0.9,4.2-1.4,6.7-1.4c2.3,0,4.5,0.4,6.5,1.2c2,0.8,3.7,2,5.2,3.6c1.5,1.6,2.6,3.5,3.4,5.9c0.8,2.3,1.2,5,1.2,8.1h-29
			c0,1.9,0.4,3.7,1.1,5.4c0.7,1.7,1.6,3.2,2.8,4.4c1.2,1.3,2.6,2.2,4.3,3c1.7,0.7,3.5,1.1,5.5,1.1c1,0,2.1-0.1,3.2-0.3
			c1.1-0.2,2.2-0.6,3.2-1c1-0.4,2-1,2.9-1.6c0.9-0.6,1.6-1.3,2.2-2L372.2,121.1z M370.1,107.2c-0.4-4.2-1.8-7.4-4-9.6
			c-2.2-2.2-5.1-3.3-8.7-3.3c-1.8,0-3.5,0.3-5,1c-1.5,0.7-2.8,1.6-3.9,2.7c-1.1,1.2-2,2.5-2.6,4.1c-0.7,1.6-1,3.2-1.1,5H370.1z"/>
	</g>
</g>
</svg>
